<svg width="43" height="39" viewBox="0 0 43 39" fill="none" xmlns="http://www.w3.org/2000/svg">
<path d="M36.3737 13.3135H17.4357C16.8299 13.3135 16.3389 13.8046 16.3389 14.4103C16.3389 15.0161 16.8299 15.5071 17.4357 15.5071H36.3737C36.9795 15.5071 37.4705 15.0161 37.4705 14.4103C37.4705 13.8046 36.9795 13.3135 36.3737 13.3135Z" fill="white" stroke="white"/>
<path d="M36.3737 17.8756H17.4357C16.8299 17.8756 16.3389 18.3667 16.3389 18.9724C16.3389 19.5781 16.8299 20.0692 17.4357 20.0692H36.3737C36.9795 20.0692 37.4705 19.5781 37.4705 18.9724C37.4705 18.3667 36.9795 17.8756 36.3737 17.8756Z" fill="white" stroke="white"/>
<path d="M36.3737 22.4377H17.4357C16.8299 22.4377 16.3389 22.9287 16.3389 23.5345C16.3389 24.1402 16.8299 24.6313 17.4357 24.6313H36.3737C36.9795 24.6313 37.4705 24.1402 37.4705 23.5345C37.4705 22.9287 36.9795 22.4377 36.3737 22.4377Z" fill="white" stroke="white"/>
<path d="M39.4039 30.1619C41.0401 29.6706 42.2409 28.1463 42.2409 26.3578V12.0652C42.2409 9.87515 40.4599 8.09424 38.2698 8.09424H15.5404C13.3503 8.09424 11.5693 9.87515 11.5693 12.0653V26.3578C11.5693 28.5478 13.3502 30.3288 15.5404 30.3288H31.4716C31.4813 30.3288 31.489 30.3309 31.495 30.3339C31.5011 30.3368 31.5074 30.3415 31.5135 30.3492L36.6582 36.8623C36.6582 36.8623 36.6582 36.8623 36.6582 36.8623C36.9553 37.2384 37.3954 37.449 37.8589 37.449C38.0303 37.449 38.2029 37.4202 38.3703 37.362L39.4039 30.1619ZM38.293 28.1343H38.2929C37.6928 28.1421 37.2102 28.6308 37.2102 29.2311V34.0223L33.2349 28.9895C33.2349 28.9895 33.2349 28.9895 33.2349 28.9894C32.8067 28.4472 32.1624 28.1352 31.4716 28.1352H15.5404C14.5608 28.1352 13.7629 27.3373 13.7629 26.3577V12.0652C13.7629 11.0856 14.5607 10.2877 15.5404 10.2877H38.2698C39.2494 10.2877 40.0473 11.0856 40.0473 12.0652V26.3578C40.0473 27.3236 39.2589 28.1221 38.293 28.1343Z" fill="white" stroke="white"/>
<path d="M8.37051 18.7438L8.3705 18.7438L5.16325 22.8042V19.0422C5.16325 18.4419 4.68067 17.9532 4.08055 17.9454H4.08046C3.31718 17.9357 2.69358 17.3041 2.69358 16.5408V4.09892C2.69358 3.32448 3.32448 2.69358 4.09892 2.69358H23.8855C24.6599 2.69358 25.2908 3.32448 25.2908 4.09892V6.40109C25.2908 7.00682 25.7819 7.49788 26.3876 7.49788C26.9933 7.49788 27.4844 7.00682 27.4844 6.40109V4.09892C27.4844 2.11406 25.8703 0.5 23.8855 0.5H4.09892C2.11406 0.5 0.5 2.11406 0.5 4.09892V16.5408C0.5 18.1252 1.53896 19.4799 2.96975 19.9565V24.8553C2.96975 25.4921 3.36332 26.0456 3.96507 26.2546C4.12597 26.3104 4.29199 26.3382 4.45715 26.3382C4.90355 26.3382 5.32748 26.1353 5.61331 25.7735L5.61333 25.7735L10.0689 20.1327C10.6478 20.0297 11.0454 19.4856 10.962 18.8988C10.877 18.2995 10.3225 17.8815 9.72169 17.9671C9.18638 18.0431 8.70562 18.3196 8.37051 18.7438ZM10.0921 20.1033C10.092 20.1034 10.0919 20.1035 10.0919 20.1036L10.0919 20.1035L10.0921 20.1033Z" fill="white" stroke="white"/>
</svg>
