<svg width="80" height="76" viewBox="0 0 80 76" fill="none" xmlns="http://www.w3.org/2000/svg">
<path d="M57.3843 32.3307H52.769V27.7339H29.6922V32.3307H25.0768C22.5383 32.3307 20.4614 34.3992 20.4614 36.9274V39.2258C20.4614 45.0867 24.8922 49.8674 30.5922 50.5799C32.046 54.0274 35.1614 56.6246 38.9229 57.3831V64.5081H29.6922V69.1048H52.769V64.5081H43.5382V57.3831C47.2998 56.6246 50.4151 54.0274 51.869 50.5799C57.569 49.8674 61.9997 45.0867 61.9997 39.2258V36.9274C61.9997 34.3992 59.9228 32.3307 57.3843 32.3307ZM25.0768 39.2258V36.9274H29.6922V45.7073C27.0152 44.7419 25.0768 42.2137 25.0768 39.2258ZM57.3843 39.2258C57.3843 42.2137 55.4459 44.7419 52.769 45.7073V36.9274H57.3843V39.2258Z" fill="#CD7F32"/>
<path d="M7.38478 30.1977L11.1878 32.4838L10.1786 28.1751L13.5386 25.276L9.114 24.9022L7.38478 20.8386L5.65555 24.9022L1.23096 25.276L4.59094 28.1751L3.58172 32.4838L7.38478 30.1977Z" fill="#CD7F32"/>
<path d="M20.9234 15.4879L24.7264 17.7741L23.7172 13.4654L27.0772 10.5663L22.6526 10.1925L20.9234 6.12891L19.1941 10.1925L14.7695 10.5663L18.1295 13.4654L17.1203 17.7741L20.9234 15.4879Z" fill="#CD7F32"/>
<path d="M41.2305 10.5849L45.0335 12.871L44.0243 8.56228L47.3843 5.66325L42.9597 5.28938L41.2305 1.22583L39.5013 5.28938L35.0767 5.66325L38.4366 8.56228L37.4274 12.871L41.2305 10.5849Z" fill="#CD7F32"/>
<path d="M60.3076 15.4879L64.1107 17.7741L63.1015 13.4654L66.4614 10.5663L62.0369 10.1925L60.3076 6.12891L58.5784 10.1925L54.1538 10.5663L57.5138 13.4654L56.5046 17.7741L60.3076 15.4879Z" fill="#CD7F32"/>
<path d="M72.6157 30.1977L76.4188 32.4838L75.4096 28.1751L78.7696 25.276L74.345 24.9022L72.6157 20.8386L70.8865 24.9022L66.4619 25.276L69.8219 28.1751L68.8127 32.4838L72.6157 30.1977Z" fill="#CD7F32"/>
</svg>
