<svg width="60" height="46" viewBox="0 0 60 46" fill="none" xmlns="http://www.w3.org/2000/svg">
<path d="M8.88867 42V32.0469H12.375C13.5827 32.0469 14.4987 32.2793 15.123 32.7441C15.7474 33.2044 16.0596 33.8812 16.0596 34.7744C16.0596 35.262 15.9342 35.6927 15.6836 36.0664C15.4329 36.4355 15.0843 36.7067 14.6377 36.8799C15.1481 37.0075 15.5492 37.265 15.8408 37.6523C16.137 38.0397 16.2852 38.5137 16.2852 39.0742C16.2852 40.0312 15.9798 40.7559 15.3691 41.248C14.7585 41.7402 13.888 41.9909 12.7578 42H8.88867ZM10.9395 37.666V40.3525H12.6963C13.1794 40.3525 13.5553 40.2386 13.8242 40.0107C14.0977 39.7783 14.2344 39.4593 14.2344 39.0537C14.2344 38.1423 13.7627 37.6797 12.8193 37.666H10.9395ZM10.9395 36.2168H12.457C13.4915 36.1986 14.0088 35.7861 14.0088 34.9795C14.0088 34.5283 13.8766 34.2048 13.6123 34.0088C13.3525 33.8083 12.9401 33.708 12.375 33.708H10.9395V36.2168ZM21.8564 36.4561C21.5876 36.4196 21.3506 36.4014 21.1455 36.4014C20.3981 36.4014 19.9082 36.6543 19.6758 37.1602V42H17.7002V34.6035H19.5664L19.6211 35.4854C20.0176 34.8063 20.5667 34.4668 21.2686 34.4668C21.4873 34.4668 21.6924 34.4964 21.8838 34.5557L21.8564 36.4561ZM22.2598 38.2334C22.2598 37.4997 22.401 36.8457 22.6836 36.2715C22.9661 35.6973 23.3717 35.2529 23.9004 34.9385C24.4336 34.624 25.0511 34.4668 25.7529 34.4668C26.751 34.4668 27.5645 34.7721 28.1934 35.3828C28.8268 35.9935 29.18 36.8229 29.2529 37.8711L29.2666 38.377C29.2666 39.5117 28.9499 40.4232 28.3164 41.1113C27.6829 41.7949 26.833 42.1367 25.7666 42.1367C24.7002 42.1367 23.848 41.7949 23.21 41.1113C22.5765 40.4277 22.2598 39.498 22.2598 38.3223V38.2334ZM24.2354 38.377C24.2354 39.0788 24.3675 39.6165 24.6318 39.9902C24.8962 40.3594 25.2744 40.5439 25.7666 40.5439C26.2451 40.5439 26.6188 40.3617 26.8877 39.9971C27.1566 39.6279 27.291 39.04 27.291 38.2334C27.291 37.5452 27.1566 37.012 26.8877 36.6338C26.6188 36.2555 26.2406 36.0664 25.7529 36.0664C25.2699 36.0664 24.8962 36.2555 24.6318 36.6338C24.3675 37.0075 24.2354 37.5885 24.2354 38.377ZM32.3018 34.6035L32.3633 35.458C32.8919 34.7972 33.6006 34.4668 34.4893 34.4668C35.2731 34.4668 35.8564 34.6969 36.2393 35.1572C36.6221 35.6175 36.818 36.3057 36.8271 37.2217V42H34.8516V37.2695C34.8516 36.8503 34.7604 36.5472 34.5781 36.3604C34.3958 36.1689 34.0928 36.0732 33.6689 36.0732C33.113 36.0732 32.696 36.3102 32.418 36.7842V42H30.4424V34.6035H32.3018ZM40.6006 40.4072H44.2168V42H38.0781V40.7969L41.5576 36.2031H38.1807V34.6035H44.1074V35.7725L40.6006 40.4072ZM48.749 42.1367C47.6644 42.1367 46.7803 41.804 46.0967 41.1387C45.4176 40.4733 45.0781 39.5869 45.0781 38.4795V38.2881C45.0781 37.5452 45.2217 36.8822 45.5088 36.2988C45.7959 35.7109 46.2015 35.2598 46.7256 34.9453C47.2542 34.6263 47.8558 34.4668 48.5303 34.4668C49.542 34.4668 50.3372 34.7858 50.916 35.4238C51.4993 36.0618 51.791 36.9665 51.791 38.1377V38.9443H47.0811C47.1449 39.4274 47.3363 39.8148 47.6553 40.1064C47.9788 40.3981 48.3867 40.5439 48.8789 40.5439C49.64 40.5439 50.2347 40.2682 50.6631 39.7168L51.6338 40.8037C51.3376 41.223 50.9365 41.5511 50.4307 41.7881C49.9248 42.0205 49.3643 42.1367 48.749 42.1367ZM48.5234 36.0664C48.1315 36.0664 47.8125 36.1986 47.5664 36.4629C47.3249 36.7272 47.1699 37.1055 47.1016 37.5977H49.8496V37.4404C49.8405 37.0029 49.722 36.6657 49.4941 36.4287C49.2663 36.1872 48.9427 36.0664 48.5234 36.0664Z" fill="#C57E29"/>
<path d="M40.2222 3.77778H37.4444V1H23.5556V3.77778H20.7778C19.25 3.77778 18 5.02778 18 6.55556V7.94444C18 11.4861 20.6667 14.375 24.0972 14.8056C24.9722 16.8889 26.8472 18.4583 29.1111 18.9167V23.2222H23.5556V26H37.4444V23.2222H31.8889V18.9167C34.1528 18.4583 36.0278 16.8889 36.9028 14.8056C40.3333 14.375 43 11.4861 43 7.94444V6.55556C43 5.02778 41.75 3.77778 40.2222 3.77778ZM20.7778 7.94444V6.55556H23.5556V11.8611C21.9444 11.2778 20.7778 9.75 20.7778 7.94444ZM40.2222 7.94444C40.2222 9.75 39.0556 11.2778 37.4444 11.8611V6.55556H40.2222V7.94444Z" fill="#C57E29"/>
</svg>
