<svg width="45" height="44" viewBox="0 0 45 44" fill="none" xmlns="http://www.w3.org/2000/svg">
<path d="M0.888672 41V31.0469H4.375C5.58268 31.0469 6.4987 31.2793 7.12305 31.7441C7.7474 32.2044 8.05957 32.8812 8.05957 33.7744C8.05957 34.262 7.93424 34.6927 7.68359 35.0664C7.43294 35.4355 7.08431 35.7067 6.6377 35.8799C7.14811 36.0075 7.54915 36.265 7.84082 36.6523C8.13704 37.0397 8.28516 37.5137 8.28516 38.0742C8.28516 39.0312 7.97982 39.7559 7.36914 40.248C6.75846 40.7402 5.88802 40.9909 4.75781 41H0.888672ZM2.93945 36.666V39.3525H4.69629C5.17936 39.3525 5.55534 39.2386 5.82422 39.0107C6.09766 38.7783 6.23438 38.4593 6.23438 38.0537C6.23438 37.1423 5.7627 36.6797 4.81934 36.666H2.93945ZM2.93945 35.2168H4.45703C5.49154 35.1986 6.00879 34.7861 6.00879 33.9795C6.00879 33.5283 5.87663 33.2048 5.6123 33.0088C5.35254 32.8083 4.9401 32.708 4.375 32.708H2.93945V35.2168ZM13.8564 35.4561C13.5876 35.4196 13.3506 35.4014 13.1455 35.4014C12.3981 35.4014 11.9082 35.6543 11.6758 36.1602V41H9.7002V33.6035H11.5664L11.6211 34.4854C12.0176 33.8063 12.5667 33.4668 13.2686 33.4668C13.4873 33.4668 13.6924 33.4964 13.8838 33.5557L13.8564 35.4561ZM14.2598 37.2334C14.2598 36.4997 14.401 35.8457 14.6836 35.2715C14.9661 34.6973 15.3717 34.2529 15.9004 33.9385C16.4336 33.624 17.0511 33.4668 17.7529 33.4668C18.751 33.4668 19.5645 33.7721 20.1934 34.3828C20.8268 34.9935 21.18 35.8229 21.2529 36.8711L21.2666 37.377C21.2666 38.5117 20.9499 39.4232 20.3164 40.1113C19.6829 40.7949 18.833 41.1367 17.7666 41.1367C16.7002 41.1367 15.848 40.7949 15.21 40.1113C14.5765 39.4277 14.2598 38.498 14.2598 37.3223V37.2334ZM16.2354 37.377C16.2354 38.0788 16.3675 38.6165 16.6318 38.9902C16.8962 39.3594 17.2744 39.5439 17.7666 39.5439C18.2451 39.5439 18.6188 39.3617 18.8877 38.9971C19.1566 38.6279 19.291 38.04 19.291 37.2334C19.291 36.5452 19.1566 36.012 18.8877 35.6338C18.6188 35.2555 18.2406 35.0664 17.7529 35.0664C17.2699 35.0664 16.8962 35.2555 16.6318 35.6338C16.3675 36.0075 16.2354 36.5885 16.2354 37.377ZM24.3018 33.6035L24.3633 34.458C24.8919 33.7972 25.6006 33.4668 26.4893 33.4668C27.2731 33.4668 27.8564 33.6969 28.2393 34.1572C28.6221 34.6175 28.818 35.3057 28.8271 36.2217V41H26.8516V36.2695C26.8516 35.8503 26.7604 35.5472 26.5781 35.3604C26.3958 35.1689 26.0928 35.0732 25.6689 35.0732C25.113 35.0732 24.696 35.3102 24.418 35.7842V41H22.4424V33.6035H24.3018ZM32.6006 39.4072H36.2168V41H30.0781V39.7969L33.5576 35.2031H30.1807V33.6035H36.1074V34.7725L32.6006 39.4072ZM40.749 41.1367C39.6644 41.1367 38.7803 40.804 38.0967 40.1387C37.4176 39.4733 37.0781 38.5869 37.0781 37.4795V37.2881C37.0781 36.5452 37.2217 35.8822 37.5088 35.2988C37.7959 34.7109 38.2015 34.2598 38.7256 33.9453C39.2542 33.6263 39.8558 33.4668 40.5303 33.4668C41.542 33.4668 42.3372 33.7858 42.916 34.4238C43.4993 35.0618 43.791 35.9665 43.791 37.1377V37.9443H39.0811C39.1449 38.4274 39.3363 38.8148 39.6553 39.1064C39.9788 39.3981 40.3867 39.5439 40.8789 39.5439C41.64 39.5439 42.2347 39.2682 42.6631 38.7168L43.6338 39.8037C43.3376 40.223 42.9365 40.5511 42.4307 40.7881C41.9248 41.0205 41.3643 41.1367 40.749 41.1367ZM40.5234 35.0664C40.1315 35.0664 39.8125 35.1986 39.5664 35.4629C39.3249 35.7272 39.1699 36.1055 39.1016 36.5977H41.8496V36.4404C41.8405 36.0029 41.722 35.6657 41.4941 35.4287C41.2663 35.1872 40.9427 35.0664 40.5234 35.0664Z" fill="#D39865"/>
<path d="M32.2222 2.77778H29.4444V0H15.5556V2.77778H12.7778C11.25 2.77778 10 4.02778 10 5.55556V6.94444C10 10.4861 12.6667 13.375 16.0972 13.8056C16.9722 15.8889 18.8472 17.4583 21.1111 17.9167V22.2222H15.5556V25H29.4444V22.2222H23.8889V17.9167C26.1528 17.4583 28.0278 15.8889 28.9028 13.8056C32.3333 13.375 35 10.4861 35 6.94444V5.55556C35 4.02778 33.75 2.77778 32.2222 2.77778ZM12.7778 6.94444V5.55556H15.5556V10.8611C13.9444 10.2778 12.7778 8.75 12.7778 6.94444ZM32.2222 6.94444C32.2222 8.75 31.0556 10.2778 29.4444 10.8611V5.55556H32.2222V6.94444Z" fill="#D39865"/>
</svg>
