<svg width="60" height="60" viewBox="0 0 60 60" fill="none" xmlns="http://www.w3.org/2000/svg">
<path d="M8.88867 49V39.0469H12.375C13.5827 39.0469 14.4987 39.2793 15.123 39.7441C15.7474 40.2044 16.0596 40.8812 16.0596 41.7744C16.0596 42.262 15.9342 42.6927 15.6836 43.0664C15.4329 43.4355 15.0843 43.7067 14.6377 43.8799C15.1481 44.0075 15.5492 44.265 15.8408 44.6523C16.137 45.0397 16.2852 45.5137 16.2852 46.0742C16.2852 47.0312 15.9798 47.7559 15.3691 48.248C14.7585 48.7402 13.888 48.9909 12.7578 49H8.88867ZM10.9395 44.666V47.3525H12.6963C13.1794 47.3525 13.5553 47.2386 13.8242 47.0107C14.0977 46.7783 14.2344 46.4593 14.2344 46.0537C14.2344 45.1423 13.7627 44.6797 12.8193 44.666H10.9395ZM10.9395 43.2168H12.457C13.4915 43.1986 14.0088 42.7861 14.0088 41.9795C14.0088 41.5283 13.8766 41.2048 13.6123 41.0088C13.3525 40.8083 12.9401 40.708 12.375 40.708H10.9395V43.2168ZM21.8564 43.4561C21.5876 43.4196 21.3506 43.4014 21.1455 43.4014C20.3981 43.4014 19.9082 43.6543 19.6758 44.1602V49H17.7002V41.6035H19.5664L19.6211 42.4854C20.0176 41.8063 20.5667 41.4668 21.2686 41.4668C21.4873 41.4668 21.6924 41.4964 21.8838 41.5557L21.8564 43.4561ZM22.2598 45.2334C22.2598 44.4997 22.401 43.8457 22.6836 43.2715C22.9661 42.6973 23.3717 42.2529 23.9004 41.9385C24.4336 41.624 25.0511 41.4668 25.7529 41.4668C26.751 41.4668 27.5645 41.7721 28.1934 42.3828C28.8268 42.9935 29.18 43.8229 29.2529 44.8711L29.2666 45.377C29.2666 46.5117 28.9499 47.4232 28.3164 48.1113C27.6829 48.7949 26.833 49.1367 25.7666 49.1367C24.7002 49.1367 23.848 48.7949 23.21 48.1113C22.5765 47.4277 22.2598 46.498 22.2598 45.3223V45.2334ZM24.2354 45.377C24.2354 46.0788 24.3675 46.6165 24.6318 46.9902C24.8962 47.3594 25.2744 47.5439 25.7666 47.5439C26.2451 47.5439 26.6188 47.3617 26.8877 46.9971C27.1566 46.6279 27.291 46.04 27.291 45.2334C27.291 44.5452 27.1566 44.012 26.8877 43.6338C26.6188 43.2555 26.2406 43.0664 25.7529 43.0664C25.2699 43.0664 24.8962 43.2555 24.6318 43.6338C24.3675 44.0075 24.2354 44.5885 24.2354 45.377ZM32.3018 41.6035L32.3633 42.458C32.8919 41.7972 33.6006 41.4668 34.4893 41.4668C35.2731 41.4668 35.8564 41.6969 36.2393 42.1572C36.6221 42.6175 36.818 43.3057 36.8271 44.2217V49H34.8516V44.2695C34.8516 43.8503 34.7604 43.5472 34.5781 43.3604C34.3958 43.1689 34.0928 43.0732 33.6689 43.0732C33.113 43.0732 32.696 43.3102 32.418 43.7842V49H30.4424V41.6035H32.3018ZM40.6006 47.4072H44.2168V49H38.0781V47.7969L41.5576 43.2031H38.1807V41.6035H44.1074V42.7725L40.6006 47.4072ZM48.749 49.1367C47.6644 49.1367 46.7803 48.804 46.0967 48.1387C45.4176 47.4733 45.0781 46.5869 45.0781 45.4795V45.2881C45.0781 44.5452 45.2217 43.8822 45.5088 43.2988C45.7959 42.7109 46.2015 42.2598 46.7256 41.9453C47.2542 41.6263 47.8558 41.4668 48.5303 41.4668C49.542 41.4668 50.3372 41.7858 50.916 42.4238C51.4993 43.0618 51.791 43.9665 51.791 45.1377V45.9443H47.0811C47.1449 46.4274 47.3363 46.8148 47.6553 47.1064C47.9788 47.3981 48.3867 47.5439 48.8789 47.5439C49.64 47.5439 50.2347 47.2682 50.6631 46.7168L51.6338 47.8037C51.3376 48.223 50.9365 48.5511 50.4307 48.7881C49.9248 49.0205 49.3643 49.1367 48.749 49.1367ZM48.5234 43.0664C48.1315 43.0664 47.8125 43.1986 47.5664 43.4629C47.3249 43.7272 47.1699 44.1055 47.1016 44.5977H49.8496V44.4404C49.8405 44.0029 49.722 43.6657 49.4941 43.4287C49.2663 43.1872 48.9427 43.0664 48.5234 43.0664Z" fill="#C57E29"/>
<path d="M40.2222 10.7778H37.4444V8H23.5556V10.7778H20.7778C19.25 10.7778 18 12.0278 18 13.5556V14.9444C18 18.4861 20.6667 21.375 24.0972 21.8056C24.9722 23.8889 26.8472 25.4583 29.1111 25.9167V30.2222H23.5556V33H37.4444V30.2222H31.8889V25.9167C34.1528 25.4583 36.0278 23.8889 36.9028 21.8056C40.3333 21.375 43 18.4861 43 14.9444V13.5556C43 12.0278 41.75 10.7778 40.2222 10.7778ZM20.7778 14.9444V13.5556H23.5556V18.8611C21.9444 18.2778 20.7778 16.75 20.7778 14.9444ZM40.2222 14.9444C40.2222 16.75 39.0556 18.2778 37.4444 18.8611V13.5556H40.2222V14.9444Z" fill="#C57E29"/>
</svg>
