<svg width="38" height="38" viewBox="0 0 38 38" fill="none" xmlns="http://www.w3.org/2000/svg">
<g clip-path="url(#clip0)">
<path d="M25.3333 7.91667H22.1667V4.75H6.33333V7.91667H3.16667C1.425 7.91667 0 9.34167 0 11.0833V12.6667C0 16.7042 3.04 19.9975 6.95083 20.4883C7.94833 22.8633 10.0858 24.6525 12.6667 25.175V30.0833H6.33333V33.25H22.1667V30.0833H15.8333V25.175C18.4142 24.6525 20.5517 22.8633 21.5492 20.4883C25.46 19.9975 28.5 16.7042 28.5 12.6667V11.0833C28.5 9.34167 27.075 7.91667 25.3333 7.91667ZM3.16667 12.6667V11.0833H6.33333V17.1317C4.49667 16.4667 3.16667 14.725 3.16667 12.6667ZM25.3333 12.6667C25.3333 14.725 24.0033 16.4667 22.1667 17.1317V11.0833H25.3333V12.6667Z" fill="#FFD700"/>
</g>
<defs>
<clipPath id="clip0">
<rect width="38" height="38" fill="white"/>
</clipPath>
</defs>
</svg>
