<svg width="57" height="44" viewBox="0 0 57 44" fill="none" xmlns="http://www.w3.org/2000/svg">
<path d="M0.888672 41V31.0469H3.95117C4.82617 31.0469 5.60775 31.2451 6.2959 31.6416C6.98861 32.0335 7.52865 32.5941 7.91602 33.3232C8.30339 34.0479 8.49707 34.8727 8.49707 35.7979V36.2559C8.49707 37.181 8.30566 38.0036 7.92285 38.7236C7.5446 39.4437 7.00911 40.002 6.31641 40.3984C5.6237 40.7949 4.84212 40.9954 3.97168 41H0.888672ZM2.93945 32.708V39.3525H3.93066C4.73275 39.3525 5.3457 39.0905 5.76953 38.5664C6.19336 38.0423 6.40983 37.2926 6.41895 36.3174V35.791C6.41895 34.7793 6.20931 34.0137 5.79004 33.4941C5.37077 32.9701 4.75781 32.708 3.95117 32.708H2.93945ZM11.9492 41H9.9668V33.6035H11.9492V41ZM9.85059 31.6895C9.85059 31.3932 9.94857 31.1494 10.1445 30.958C10.3451 30.7666 10.6162 30.6709 10.958 30.6709C11.2952 30.6709 11.5641 30.7666 11.7646 30.958C11.9652 31.1494 12.0654 31.3932 12.0654 31.6895C12.0654 31.9902 11.9629 32.2363 11.7578 32.4277C11.5573 32.6191 11.2907 32.7148 10.958 32.7148C10.6253 32.7148 10.3564 32.6191 10.1514 32.4277C9.95085 32.2363 9.85059 31.9902 9.85059 31.6895ZM17.8691 41C17.778 40.8223 17.7119 40.6012 17.6709 40.3369C17.1924 40.8701 16.5703 41.1367 15.8047 41.1367C15.0801 41.1367 14.4785 40.9271 14 40.5078C13.526 40.0885 13.2891 39.5599 13.2891 38.9219C13.2891 38.138 13.5785 37.5365 14.1572 37.1172C14.7406 36.6979 15.5814 36.486 16.6797 36.4814H17.5889V36.0576C17.5889 35.7158 17.5 35.4424 17.3223 35.2373C17.1491 35.0322 16.8734 34.9297 16.4951 34.9297C16.1624 34.9297 15.9004 35.0094 15.709 35.1689C15.5221 35.3285 15.4287 35.5472 15.4287 35.8252H13.4531C13.4531 35.3968 13.5853 35.0003 13.8496 34.6357C14.1139 34.2712 14.4876 33.9863 14.9707 33.7812C15.4538 33.5716 15.9961 33.4668 16.5977 33.4668C17.5091 33.4668 18.2314 33.6969 18.7646 34.1572C19.3024 34.613 19.5713 35.2555 19.5713 36.085V39.291C19.5758 39.9928 19.6738 40.5238 19.8652 40.8838V41H17.8691ZM16.2354 39.626C16.527 39.626 16.7959 39.5622 17.042 39.4346C17.2881 39.3024 17.4704 39.127 17.5889 38.9082V37.6367H16.8506C15.8617 37.6367 15.3353 37.9785 15.2715 38.6621L15.2646 38.7783C15.2646 39.0244 15.3512 39.2272 15.5244 39.3867C15.6976 39.5462 15.9346 39.626 16.2354 39.626ZM22.9414 33.6035L23.0029 34.4307C23.527 33.7881 24.2357 33.4668 25.1289 33.4668C26.0814 33.4668 26.7354 33.8428 27.0908 34.5947C27.6104 33.8428 28.3509 33.4668 29.3125 33.4668C30.1146 33.4668 30.7116 33.7015 31.1035 34.1709C31.4954 34.6357 31.6914 35.3376 31.6914 36.2764V41H29.709V36.2832C29.709 35.8639 29.627 35.5586 29.4629 35.3672C29.2988 35.1712 29.0094 35.0732 28.5947 35.0732C28.0023 35.0732 27.5921 35.3558 27.3643 35.9209L27.3711 41H25.3955V36.29C25.3955 35.8617 25.3112 35.5518 25.1426 35.3604C24.974 35.1689 24.6868 35.0732 24.2812 35.0732C23.7207 35.0732 23.3151 35.3057 23.0645 35.7705V41H21.0889V33.6035H22.9414ZM32.9082 37.2334C32.9082 36.4997 33.0495 35.8457 33.332 35.2715C33.6146 34.6973 34.0202 34.2529 34.5488 33.9385C35.082 33.624 35.6995 33.4668 36.4014 33.4668C37.3994 33.4668 38.2129 33.7721 38.8418 34.3828C39.4753 34.9935 39.8285 35.8229 39.9014 36.8711L39.915 37.377C39.915 38.5117 39.5983 39.4232 38.9648 40.1113C38.3314 40.7949 37.4814 41.1367 36.415 41.1367C35.3486 41.1367 34.4964 40.7949 33.8584 40.1113C33.2249 39.4277 32.9082 38.498 32.9082 37.3223V37.2334ZM34.8838 37.377C34.8838 38.0788 35.016 38.6165 35.2803 38.9902C35.5446 39.3594 35.9229 39.5439 36.415 39.5439C36.8936 39.5439 37.2673 39.3617 37.5361 38.9971C37.805 38.6279 37.9395 38.04 37.9395 37.2334C37.9395 36.5452 37.805 36.012 37.5361 35.6338C37.2673 35.2555 36.889 35.0664 36.4014 35.0664C35.9183 35.0664 35.5446 35.2555 35.2803 35.6338C35.016 36.0075 34.8838 36.5885 34.8838 37.377ZM42.9502 33.6035L43.0117 34.458C43.5404 33.7972 44.249 33.4668 45.1377 33.4668C45.9215 33.4668 46.5049 33.6969 46.8877 34.1572C47.2705 34.6175 47.4665 35.3057 47.4756 36.2217V41H45.5V36.2695C45.5 35.8503 45.4089 35.5472 45.2266 35.3604C45.0443 35.1689 44.7412 35.0732 44.3174 35.0732C43.7614 35.0732 43.3444 35.3102 43.0664 35.7842V41H41.0908V33.6035H42.9502ZM48.6719 37.2471C48.6719 36.0941 48.9294 35.1758 49.4443 34.4922C49.9639 33.8086 50.6725 33.4668 51.5703 33.4668C52.2904 33.4668 52.8851 33.7357 53.3545 34.2734V30.5H55.3369V41H53.5527L53.457 40.2139C52.9648 40.8291 52.3314 41.1367 51.5566 41.1367C50.6862 41.1367 49.9867 40.7949 49.458 40.1113C48.9339 39.4232 48.6719 38.4684 48.6719 37.2471ZM50.6475 37.3906C50.6475 38.0833 50.7682 38.6143 51.0098 38.9834C51.2513 39.3525 51.6022 39.5371 52.0625 39.5371C52.6732 39.5371 53.1038 39.2796 53.3545 38.7646V35.8457C53.1084 35.3307 52.6823 35.0732 52.0762 35.0732C51.1237 35.0732 50.6475 35.8457 50.6475 37.3906Z" fill="#CBD0C0"/>
<path d="M37.2222 2.77778H34.4444V0H20.5556V2.77778H17.7778C16.25 2.77778 15 4.02778 15 5.55556V6.94444C15 10.4861 17.6667 13.375 21.0972 13.8056C21.9722 15.8889 23.8472 17.4583 26.1111 17.9167V22.2222H20.5556V25H34.4444V22.2222H28.8889V17.9167C31.1528 17.4583 33.0278 15.8889 33.9028 13.8056C37.3333 13.375 40 10.4861 40 6.94444V5.55556C40 4.02778 38.75 2.77778 37.2222 2.77778ZM17.7778 6.94444V5.55556H20.5556V10.8611C18.9444 10.2778 17.7778 8.75 17.7778 6.94444ZM37.2222 6.94444C37.2222 8.75 36.0556 10.2778 34.4444 10.8611V5.55556H37.2222V6.94444Z" fill="#CBD0C0"/>
</svg>
