<svg width="80" height="76" viewBox="0 0 80 76" fill="none" xmlns="http://www.w3.org/2000/svg">
<path d="M57.3846 32.3305H52.7692V27.7338H29.6924V32.3305H25.077C22.5386 32.3305 20.4617 34.3991 20.4617 36.9273V39.2257C20.4617 45.0866 24.8924 49.8672 30.5924 50.5797C32.0462 54.0273 35.1616 56.6245 38.9231 57.383V64.508H29.6924V69.1047H52.7692V64.508H43.5385V57.383C47.3 56.6245 50.4154 54.0273 51.8692 50.5797C57.5692 49.8672 62 45.0866 62 39.2257V36.9273C62 34.3991 59.923 32.3305 57.3846 32.3305ZM25.077 39.2257V36.9273H29.6924V45.7071C27.0155 44.7418 25.077 42.2136 25.077 39.2257ZM57.3846 39.2257C57.3846 42.2136 55.4461 44.7418 52.7692 45.7071V36.9273H57.3846V39.2257Z" fill="#30C3FE"/>
<path d="M7.38478 30.1978L11.1878 32.4839L10.1786 28.1752L13.5386 25.2762L9.114 24.9023L7.38478 20.8387L5.65555 24.9023L1.23096 25.2762L4.59094 28.1752L3.58172 32.4839L7.38478 30.1978Z" fill="#30C3FE"/>
<path d="M20.9234 15.4879L24.7264 17.7741L23.7172 13.4654L27.0772 10.5663L22.6526 10.1925L20.9234 6.12891L19.1941 10.1925L14.7695 10.5663L18.1295 13.4654L17.1203 17.7741L20.9234 15.4879Z" fill="#30C3FE"/>
<path d="M41.2302 10.5849L45.0333 12.871L44.0241 8.56228L47.3841 5.66325L42.9595 5.28938L41.2302 1.22583L39.501 5.28938L35.0764 5.66325L38.4364 8.56228L37.4272 12.871L41.2302 10.5849Z" fill="#30C3FE"/>
<path d="M60.3076 15.4879L64.1107 17.7741L63.1015 13.4654L66.4614 10.5663L62.0369 10.1925L60.3076 6.12891L58.5784 10.1925L54.1538 10.5663L57.5138 13.4654L56.5046 17.7741L60.3076 15.4879Z" fill="#30C3FE"/>
<path d="M72.6157 30.1978L76.4188 32.4839L75.4096 28.1752L78.7696 25.2762L74.345 24.9023L72.6157 20.8387L70.8865 24.9023L66.4619 25.2762L69.8219 28.1752L68.8127 32.4839L72.6157 30.1978Z" fill="#30C3FE"/>
</svg>
