<svg width="60" height="60" viewBox="0 0 60 60" fill="none" xmlns="http://www.w3.org/2000/svg">
<path d="M2.88867 49V39.0469H5.95117C6.82617 39.0469 7.60775 39.2451 8.2959 39.6416C8.98861 40.0335 9.52865 40.5941 9.91602 41.3232C10.3034 42.0479 10.4971 42.8727 10.4971 43.7979V44.2559C10.4971 45.181 10.3057 46.0036 9.92285 46.7236C9.5446 47.4437 9.00911 48.002 8.31641 48.3984C7.6237 48.7949 6.84212 48.9954 5.97168 49H2.88867ZM4.93945 40.708V47.3525H5.93066C6.73275 47.3525 7.3457 47.0905 7.76953 46.5664C8.19336 46.0423 8.40983 45.2926 8.41895 44.3174V43.791C8.41895 42.7793 8.20931 42.0137 7.79004 41.4941C7.37077 40.9701 6.75781 40.708 5.95117 40.708H4.93945ZM13.9492 49H11.9668V41.6035H13.9492V49ZM11.8506 39.6895C11.8506 39.3932 11.9486 39.1494 12.1445 38.958C12.3451 38.7666 12.6162 38.6709 12.958 38.6709C13.2952 38.6709 13.5641 38.7666 13.7646 38.958C13.9652 39.1494 14.0654 39.3932 14.0654 39.6895C14.0654 39.9902 13.9629 40.2363 13.7578 40.4277C13.5573 40.6191 13.2907 40.7148 12.958 40.7148C12.6253 40.7148 12.3564 40.6191 12.1514 40.4277C11.9508 40.2363 11.8506 39.9902 11.8506 39.6895ZM19.8691 49C19.778 48.8223 19.7119 48.6012 19.6709 48.3369C19.1924 48.8701 18.5703 49.1367 17.8047 49.1367C17.0801 49.1367 16.4785 48.9271 16 48.5078C15.526 48.0885 15.2891 47.5599 15.2891 46.9219C15.2891 46.138 15.5785 45.5365 16.1572 45.1172C16.7406 44.6979 17.5814 44.486 18.6797 44.4814H19.5889V44.0576C19.5889 43.7158 19.5 43.4424 19.3223 43.2373C19.1491 43.0322 18.8734 42.9297 18.4951 42.9297C18.1624 42.9297 17.9004 43.0094 17.709 43.1689C17.5221 43.3285 17.4287 43.5472 17.4287 43.8252H15.4531C15.4531 43.3968 15.5853 43.0003 15.8496 42.6357C16.1139 42.2712 16.4876 41.9863 16.9707 41.7812C17.4538 41.5716 17.9961 41.4668 18.5977 41.4668C19.5091 41.4668 20.2314 41.6969 20.7646 42.1572C21.3024 42.613 21.5713 43.2555 21.5713 44.085V47.291C21.5758 47.9928 21.6738 48.5238 21.8652 48.8838V49H19.8691ZM18.2354 47.626C18.527 47.626 18.7959 47.5622 19.042 47.4346C19.2881 47.3024 19.4704 47.127 19.5889 46.9082V45.6367H18.8506C17.8617 45.6367 17.3353 45.9785 17.2715 46.6621L17.2646 46.7783C17.2646 47.0244 17.3512 47.2272 17.5244 47.3867C17.6976 47.5462 17.9346 47.626 18.2354 47.626ZM24.9414 41.6035L25.0029 42.4307C25.527 41.7881 26.2357 41.4668 27.1289 41.4668C28.0814 41.4668 28.7354 41.8428 29.0908 42.5947C29.6104 41.8428 30.3509 41.4668 31.3125 41.4668C32.1146 41.4668 32.7116 41.7015 33.1035 42.1709C33.4954 42.6357 33.6914 43.3376 33.6914 44.2764V49H31.709V44.2832C31.709 43.8639 31.627 43.5586 31.4629 43.3672C31.2988 43.1712 31.0094 43.0732 30.5947 43.0732C30.0023 43.0732 29.5921 43.3558 29.3643 43.9209L29.3711 49H27.3955V44.29C27.3955 43.8617 27.3112 43.5518 27.1426 43.3604C26.974 43.1689 26.6868 43.0732 26.2812 43.0732C25.7207 43.0732 25.3151 43.3057 25.0645 43.7705V49H23.0889V41.6035H24.9414ZM34.9082 45.2334C34.9082 44.4997 35.0495 43.8457 35.332 43.2715C35.6146 42.6973 36.0202 42.2529 36.5488 41.9385C37.082 41.624 37.6995 41.4668 38.4014 41.4668C39.3994 41.4668 40.2129 41.7721 40.8418 42.3828C41.4753 42.9935 41.8285 43.8229 41.9014 44.8711L41.915 45.377C41.915 46.5117 41.5983 47.4232 40.9648 48.1113C40.3314 48.7949 39.4814 49.1367 38.415 49.1367C37.3486 49.1367 36.4964 48.7949 35.8584 48.1113C35.2249 47.4277 34.9082 46.498 34.9082 45.3223V45.2334ZM36.8838 45.377C36.8838 46.0788 37.016 46.6165 37.2803 46.9902C37.5446 47.3594 37.9229 47.5439 38.415 47.5439C38.8936 47.5439 39.2673 47.3617 39.5361 46.9971C39.805 46.6279 39.9395 46.04 39.9395 45.2334C39.9395 44.5452 39.805 44.012 39.5361 43.6338C39.2673 43.2555 38.889 43.0664 38.4014 43.0664C37.9183 43.0664 37.5446 43.2555 37.2803 43.6338C37.016 44.0075 36.8838 44.5885 36.8838 45.377ZM44.9502 41.6035L45.0117 42.458C45.5404 41.7972 46.249 41.4668 47.1377 41.4668C47.9215 41.4668 48.5049 41.6969 48.8877 42.1572C49.2705 42.6175 49.4665 43.3057 49.4756 44.2217V49H47.5V44.2695C47.5 43.8503 47.4089 43.5472 47.2266 43.3604C47.0443 43.1689 46.7412 43.0732 46.3174 43.0732C45.7614 43.0732 45.3444 43.3102 45.0664 43.7842V49H43.0908V41.6035H44.9502ZM50.6719 45.2471C50.6719 44.0941 50.9294 43.1758 51.4443 42.4922C51.9639 41.8086 52.6725 41.4668 53.5703 41.4668C54.2904 41.4668 54.8851 41.7357 55.3545 42.2734V38.5H57.3369V49H55.5527L55.457 48.2139C54.9648 48.8291 54.3314 49.1367 53.5566 49.1367C52.6862 49.1367 51.9867 48.7949 51.458 48.1113C50.9339 47.4232 50.6719 46.4684 50.6719 45.2471ZM52.6475 45.3906C52.6475 46.0833 52.7682 46.6143 53.0098 46.9834C53.2513 47.3525 53.6022 47.5371 54.0625 47.5371C54.6732 47.5371 55.1038 47.2796 55.3545 46.7646V43.8457C55.1084 43.3307 54.6823 43.0732 54.0762 43.0732C53.1237 43.0732 52.6475 43.8457 52.6475 45.3906Z" fill="#30C3FE"/>
<path d="M39.2222 10.7778H36.4444V8H22.5556V10.7778H19.7778C18.25 10.7778 17 12.0278 17 13.5556V14.9444C17 18.4861 19.6667 21.375 23.0972 21.8056C23.9722 23.8889 25.8472 25.4583 28.1111 25.9167V30.2222H22.5556V33H36.4444V30.2222H30.8889V25.9167C33.1528 25.4583 35.0278 23.8889 35.9028 21.8056C39.3333 21.375 42 18.4861 42 14.9444V13.5556C42 12.0278 40.75 10.7778 39.2222 10.7778ZM19.7778 14.9444V13.5556H22.5556V18.8611C20.9444 18.2778 19.7778 16.75 19.7778 14.9444ZM39.2222 14.9444C39.2222 16.75 38.0556 18.2778 36.4444 18.8611V13.5556H39.2222V14.9444Z" fill="#30C3FE"/>
</svg>
