<svg width="60" height="46" viewBox="0 0 60 46" fill="none" xmlns="http://www.w3.org/2000/svg">
<path d="M2.88867 42V32.0469H5.95117C6.82617 32.0469 7.60775 32.2451 8.2959 32.6416C8.98861 33.0335 9.52865 33.5941 9.91602 34.3232C10.3034 35.0479 10.4971 35.8727 10.4971 36.7979V37.2559C10.4971 38.181 10.3057 39.0036 9.92285 39.7236C9.5446 40.4437 9.00911 41.002 8.31641 41.3984C7.6237 41.7949 6.84212 41.9954 5.97168 42H2.88867ZM4.93945 33.708V40.3525H5.93066C6.73275 40.3525 7.3457 40.0905 7.76953 39.5664C8.19336 39.0423 8.40983 38.2926 8.41895 37.3174V36.791C8.41895 35.7793 8.20931 35.0137 7.79004 34.4941C7.37077 33.9701 6.75781 33.708 5.95117 33.708H4.93945ZM13.9492 42H11.9668V34.6035H13.9492V42ZM11.8506 32.6895C11.8506 32.3932 11.9486 32.1494 12.1445 31.958C12.3451 31.7666 12.6162 31.6709 12.958 31.6709C13.2952 31.6709 13.5641 31.7666 13.7646 31.958C13.9652 32.1494 14.0654 32.3932 14.0654 32.6895C14.0654 32.9902 13.9629 33.2363 13.7578 33.4277C13.5573 33.6191 13.2907 33.7148 12.958 33.7148C12.6253 33.7148 12.3564 33.6191 12.1514 33.4277C11.9508 33.2363 11.8506 32.9902 11.8506 32.6895ZM19.8691 42C19.778 41.8223 19.7119 41.6012 19.6709 41.3369C19.1924 41.8701 18.5703 42.1367 17.8047 42.1367C17.0801 42.1367 16.4785 41.9271 16 41.5078C15.526 41.0885 15.2891 40.5599 15.2891 39.9219C15.2891 39.138 15.5785 38.5365 16.1572 38.1172C16.7406 37.6979 17.5814 37.486 18.6797 37.4814H19.5889V37.0576C19.5889 36.7158 19.5 36.4424 19.3223 36.2373C19.1491 36.0322 18.8734 35.9297 18.4951 35.9297C18.1624 35.9297 17.9004 36.0094 17.709 36.1689C17.5221 36.3285 17.4287 36.5472 17.4287 36.8252H15.4531C15.4531 36.3968 15.5853 36.0003 15.8496 35.6357C16.1139 35.2712 16.4876 34.9863 16.9707 34.7812C17.4538 34.5716 17.9961 34.4668 18.5977 34.4668C19.5091 34.4668 20.2314 34.6969 20.7646 35.1572C21.3024 35.613 21.5713 36.2555 21.5713 37.085V40.291C21.5758 40.9928 21.6738 41.5238 21.8652 41.8838V42H19.8691ZM18.2354 40.626C18.527 40.626 18.7959 40.5622 19.042 40.4346C19.2881 40.3024 19.4704 40.127 19.5889 39.9082V38.6367H18.8506C17.8617 38.6367 17.3353 38.9785 17.2715 39.6621L17.2646 39.7783C17.2646 40.0244 17.3512 40.2272 17.5244 40.3867C17.6976 40.5462 17.9346 40.626 18.2354 40.626ZM24.9414 34.6035L25.0029 35.4307C25.527 34.7881 26.2357 34.4668 27.1289 34.4668C28.0814 34.4668 28.7354 34.8428 29.0908 35.5947C29.6104 34.8428 30.3509 34.4668 31.3125 34.4668C32.1146 34.4668 32.7116 34.7015 33.1035 35.1709C33.4954 35.6357 33.6914 36.3376 33.6914 37.2764V42H31.709V37.2832C31.709 36.8639 31.627 36.5586 31.4629 36.3672C31.2988 36.1712 31.0094 36.0732 30.5947 36.0732C30.0023 36.0732 29.5921 36.3558 29.3643 36.9209L29.3711 42H27.3955V37.29C27.3955 36.8617 27.3112 36.5518 27.1426 36.3604C26.974 36.1689 26.6868 36.0732 26.2812 36.0732C25.7207 36.0732 25.3151 36.3057 25.0645 36.7705V42H23.0889V34.6035H24.9414ZM34.9082 38.2334C34.9082 37.4997 35.0495 36.8457 35.332 36.2715C35.6146 35.6973 36.0202 35.2529 36.5488 34.9385C37.082 34.624 37.6995 34.4668 38.4014 34.4668C39.3994 34.4668 40.2129 34.7721 40.8418 35.3828C41.4753 35.9935 41.8285 36.8229 41.9014 37.8711L41.915 38.377C41.915 39.5117 41.5983 40.4232 40.9648 41.1113C40.3314 41.7949 39.4814 42.1367 38.415 42.1367C37.3486 42.1367 36.4964 41.7949 35.8584 41.1113C35.2249 40.4277 34.9082 39.498 34.9082 38.3223V38.2334ZM36.8838 38.377C36.8838 39.0788 37.016 39.6165 37.2803 39.9902C37.5446 40.3594 37.9229 40.5439 38.415 40.5439C38.8936 40.5439 39.2673 40.3617 39.5361 39.9971C39.805 39.6279 39.9395 39.04 39.9395 38.2334C39.9395 37.5452 39.805 37.012 39.5361 36.6338C39.2673 36.2555 38.889 36.0664 38.4014 36.0664C37.9183 36.0664 37.5446 36.2555 37.2803 36.6338C37.016 37.0075 36.8838 37.5885 36.8838 38.377ZM44.9502 34.6035L45.0117 35.458C45.5404 34.7972 46.249 34.4668 47.1377 34.4668C47.9215 34.4668 48.5049 34.6969 48.8877 35.1572C49.2705 35.6175 49.4665 36.3057 49.4756 37.2217V42H47.5V37.2695C47.5 36.8503 47.4089 36.5472 47.2266 36.3604C47.0443 36.1689 46.7412 36.0732 46.3174 36.0732C45.7614 36.0732 45.3444 36.3102 45.0664 36.7842V42H43.0908V34.6035H44.9502ZM50.6719 38.2471C50.6719 37.0941 50.9294 36.1758 51.4443 35.4922C51.9639 34.8086 52.6725 34.4668 53.5703 34.4668C54.2904 34.4668 54.8851 34.7357 55.3545 35.2734V31.5H57.3369V42H55.5527L55.457 41.2139C54.9648 41.8291 54.3314 42.1367 53.5566 42.1367C52.6862 42.1367 51.9867 41.7949 51.458 41.1113C50.9339 40.4232 50.6719 39.4684 50.6719 38.2471ZM52.6475 38.3906C52.6475 39.0833 52.7682 39.6143 53.0098 39.9834C53.2513 40.3525 53.6022 40.5371 54.0625 40.5371C54.6732 40.5371 55.1038 40.2796 55.3545 39.7646V36.8457C55.1084 36.3307 54.6823 36.0732 54.0762 36.0732C53.1237 36.0732 52.6475 36.8457 52.6475 38.3906Z" fill="#30C3FE"/>
<path d="M39.2222 3.77778H36.4444V1H22.5556V3.77778H19.7778C18.25 3.77778 17 5.02778 17 6.55556V7.94444C17 11.4861 19.6667 14.375 23.0972 14.8056C23.9722 16.8889 25.8472 18.4583 28.1111 18.9167V23.2222H22.5556V26H36.4444V23.2222H30.8889V18.9167C33.1528 18.4583 35.0278 16.8889 35.9028 14.8056C39.3333 14.375 42 11.4861 42 7.94444V6.55556C42 5.02778 40.75 3.77778 39.2222 3.77778ZM19.7778 7.94444V6.55556H22.5556V11.8611C20.9444 11.2778 19.7778 9.75 19.7778 7.94444ZM39.2222 7.94444C39.2222 9.75 38.0556 11.2778 36.4444 11.8611V6.55556H39.2222V7.94444Z" fill="#30C3FE"/>
</svg>
