<svg width="60" height="46" viewBox="0 0 60 46" fill="none" xmlns="http://www.w3.org/2000/svg">
<path d="M23.7637 40.7422C23.3945 41.1842 22.8727 41.5283 22.1982 41.7744C21.5238 42.016 20.7764 42.1367 19.9561 42.1367C19.0947 42.1367 18.3382 41.9499 17.6865 41.5762C17.0394 41.1979 16.5381 40.651 16.1826 39.9355C15.8317 39.2201 15.6517 38.3792 15.6426 37.4131V36.7363C15.6426 35.7428 15.8089 34.8838 16.1416 34.1592C16.4788 33.43 16.9619 32.874 17.5908 32.4912C18.2243 32.1038 18.9648 31.9102 19.8125 31.9102C20.9928 31.9102 21.9157 32.1927 22.5811 32.7578C23.2464 33.3184 23.6406 34.1364 23.7637 35.2119H21.7676C21.6764 34.6423 21.4736 34.2253 21.1592 33.9609C20.8493 33.6966 20.4209 33.5645 19.874 33.5645C19.1768 33.5645 18.6458 33.8265 18.2812 34.3506C17.9167 34.8747 17.7321 35.654 17.7275 36.6885V37.3242C17.7275 38.3678 17.9258 39.1562 18.3223 39.6895C18.7188 40.2227 19.2998 40.4893 20.0654 40.4893C20.8356 40.4893 21.3848 40.3252 21.7129 39.9971V38.2812H19.8467V36.7705H23.7637V40.7422ZM24.9941 38.2334C24.9941 37.4997 25.1354 36.8457 25.418 36.2715C25.7005 35.6973 26.1061 35.2529 26.6348 34.9385C27.168 34.624 27.7855 34.4668 28.4873 34.4668C29.4854 34.4668 30.2988 34.7721 30.9277 35.3828C31.5612 35.9935 31.9144 36.8229 31.9873 37.8711L32.001 38.377C32.001 39.5117 31.6842 40.4232 31.0508 41.1113C30.4173 41.7949 29.5674 42.1367 28.501 42.1367C27.4346 42.1367 26.5824 41.7949 25.9443 41.1113C25.3109 40.4277 24.9941 39.498 24.9941 38.3223V38.2334ZM26.9697 38.377C26.9697 39.0788 27.1019 39.6165 27.3662 39.9902C27.6305 40.3594 28.0088 40.5439 28.501 40.5439C28.9795 40.5439 29.3532 40.3617 29.6221 39.9971C29.891 39.6279 30.0254 39.04 30.0254 38.2334C30.0254 37.5452 29.891 37.012 29.6221 36.6338C29.3532 36.2555 28.9749 36.0664 28.4873 36.0664C28.0042 36.0664 27.6305 36.2555 27.3662 36.6338C27.1019 37.0075 26.9697 37.5885 26.9697 38.377ZM35.3027 42H33.3203V31.5H35.3027V42ZM36.6289 38.2471C36.6289 37.0941 36.8864 36.1758 37.4014 35.4922C37.9209 34.8086 38.6296 34.4668 39.5273 34.4668C40.2474 34.4668 40.8421 34.7357 41.3115 35.2734V31.5H43.2939V42H41.5098L41.4141 41.2139C40.9219 41.8291 40.2884 42.1367 39.5137 42.1367C38.6432 42.1367 37.9437 41.7949 37.415 41.1113C36.891 40.4232 36.6289 39.4684 36.6289 38.2471ZM38.6045 38.3906C38.6045 39.0833 38.7253 39.6143 38.9668 39.9834C39.2083 40.3525 39.5592 40.5371 40.0195 40.5371C40.6302 40.5371 41.0609 40.2796 41.3115 39.7646V36.8457C41.0654 36.3307 40.6393 36.0732 40.0332 36.0732C39.0807 36.0732 38.6045 36.8457 38.6045 38.3906Z" fill="#FFD700"/>
<path d="M39.2222 3.77778H36.4444V1H22.5556V3.77778H19.7778C18.25 3.77778 17 5.02778 17 6.55556V7.94444C17 11.4861 19.6667 14.375 23.0972 14.8056C23.9722 16.8889 25.8472 18.4583 28.1111 18.9167V23.2222H22.5556V26H36.4444V23.2222H30.8889V18.9167C33.1528 18.4583 35.0278 16.8889 35.9028 14.8056C39.3333 14.375 42 11.4861 42 7.94444V6.55556C42 5.02778 40.75 3.77778 39.2222 3.77778ZM19.7778 7.94444V6.55556H22.5556V11.8611C20.9444 11.2778 19.7778 9.75 19.7778 7.94444ZM39.2222 7.94444C39.2222 9.75 38.0556 11.2778 36.4444 11.8611V6.55556H39.2222V7.94444Z" fill="#FFD700"/>
</svg>
