<svg width="60" height="60" viewBox="0 0 60 60" fill="none" xmlns="http://www.w3.org/2000/svg">
<path d="M23.7637 47.7422C23.3945 48.1842 22.8727 48.5283 22.1982 48.7744C21.5238 49.016 20.7764 49.1367 19.9561 49.1367C19.0947 49.1367 18.3382 48.9499 17.6865 48.5762C17.0394 48.1979 16.5381 47.651 16.1826 46.9355C15.8317 46.2201 15.6517 45.3792 15.6426 44.4131V43.7363C15.6426 42.7428 15.8089 41.8838 16.1416 41.1592C16.4788 40.43 16.9619 39.874 17.5908 39.4912C18.2243 39.1038 18.9648 38.9102 19.8125 38.9102C20.9928 38.9102 21.9157 39.1927 22.5811 39.7578C23.2464 40.3184 23.6406 41.1364 23.7637 42.2119H21.7676C21.6764 41.6423 21.4736 41.2253 21.1592 40.9609C20.8493 40.6966 20.4209 40.5645 19.874 40.5645C19.1768 40.5645 18.6458 40.8265 18.2812 41.3506C17.9167 41.8747 17.7321 42.654 17.7275 43.6885V44.3242C17.7275 45.3678 17.9258 46.1562 18.3223 46.6895C18.7188 47.2227 19.2998 47.4893 20.0654 47.4893C20.8356 47.4893 21.3848 47.3252 21.7129 46.9971V45.2812H19.8467V43.7705H23.7637V47.7422ZM24.9941 45.2334C24.9941 44.4997 25.1354 43.8457 25.418 43.2715C25.7005 42.6973 26.1061 42.2529 26.6348 41.9385C27.168 41.624 27.7855 41.4668 28.4873 41.4668C29.4854 41.4668 30.2988 41.7721 30.9277 42.3828C31.5612 42.9935 31.9144 43.8229 31.9873 44.8711L32.001 45.377C32.001 46.5117 31.6842 47.4232 31.0508 48.1113C30.4173 48.7949 29.5674 49.1367 28.501 49.1367C27.4346 49.1367 26.5824 48.7949 25.9443 48.1113C25.3109 47.4277 24.9941 46.498 24.9941 45.3223V45.2334ZM26.9697 45.377C26.9697 46.0788 27.1019 46.6165 27.3662 46.9902C27.6305 47.3594 28.0088 47.5439 28.501 47.5439C28.9795 47.5439 29.3532 47.3617 29.6221 46.9971C29.891 46.6279 30.0254 46.04 30.0254 45.2334C30.0254 44.5452 29.891 44.012 29.6221 43.6338C29.3532 43.2555 28.9749 43.0664 28.4873 43.0664C28.0042 43.0664 27.6305 43.2555 27.3662 43.6338C27.1019 44.0075 26.9697 44.5885 26.9697 45.377ZM35.3027 49H33.3203V38.5H35.3027V49ZM36.6289 45.2471C36.6289 44.0941 36.8864 43.1758 37.4014 42.4922C37.9209 41.8086 38.6296 41.4668 39.5273 41.4668C40.2474 41.4668 40.8421 41.7357 41.3115 42.2734V38.5H43.2939V49H41.5098L41.4141 48.2139C40.9219 48.8291 40.2884 49.1367 39.5137 49.1367C38.6432 49.1367 37.9437 48.7949 37.415 48.1113C36.891 47.4232 36.6289 46.4684 36.6289 45.2471ZM38.6045 45.3906C38.6045 46.0833 38.7253 46.6143 38.9668 46.9834C39.2083 47.3525 39.5592 47.5371 40.0195 47.5371C40.6302 47.5371 41.0609 47.2796 41.3115 46.7646V43.8457C41.0654 43.3307 40.6393 43.0732 40.0332 43.0732C39.0807 43.0732 38.6045 43.8457 38.6045 45.3906Z" fill="#FFD700"/>
<path d="M39.2222 10.7778H36.4444V8H22.5556V10.7778H19.7778C18.25 10.7778 17 12.0278 17 13.5556V14.9444C17 18.4861 19.6667 21.375 23.0972 21.8056C23.9722 23.8889 25.8472 25.4583 28.1111 25.9167V30.2222H22.5556V33H36.4444V30.2222H30.8889V25.9167C33.1528 25.4583 35.0278 23.8889 35.9028 21.8056C39.3333 21.375 42 18.4861 42 14.9444V13.5556C42 12.0278 40.75 10.7778 39.2222 10.7778ZM19.7778 14.9444V13.5556H22.5556V18.8611C20.9444 18.2778 19.7778 16.75 19.7778 14.9444ZM39.2222 14.9444C39.2222 16.75 38.0556 18.2778 36.4444 18.8611V13.5556H39.2222V14.9444Z" fill="#FFD700"/>
</svg>
