<svg width="21" height="21" viewBox="0 0 21 21" fill="none" xmlns="http://www.w3.org/2000/svg">
<path d="M12.7663 7L10.5 9.26625L8.23375 7L7 8.23375L9.26625 10.5L7 12.7663L8.23375 14L10.5 11.7338L12.7663 14L14 12.7663L11.7338 10.5L14 8.23375L12.7663 7ZM10.5 1.75C5.66125 1.75 1.75 5.66125 1.75 10.5C1.75 15.3388 5.66125 19.25 10.5 19.25C15.3388 19.25 19.25 15.3388 19.25 10.5C19.25 5.66125 15.3388 1.75 10.5 1.75ZM10.5 17.5C6.64125 17.5 3.5 14.3588 3.5 10.5C3.5 6.64125 6.64125 3.5 10.5 3.5C14.3588 3.5 17.5 6.64125 17.5 10.5C17.5 14.3588 14.3588 17.5 10.5 17.5Z" fill="#C4C4C4"/>
</svg>
