<svg width="28" height="28" viewBox="0 0 28 28" fill="none" xmlns="http://www.w3.org/2000/svg">
<path d="M18.4108 11.0908C20.2672 9.39826 22.7777 7.10921 23.0065 1.64062H24.6641V0H3.33594V1.64062H4.99346C5.22227 7.10921 7.73276 9.39826 9.58918 11.0908C10.8345 12.2262 11.5391 12.9211 11.5391 14C11.5391 15.0789 10.8345 15.7738 9.58918 16.9092C7.73276 18.6017 5.22227 20.8908 4.99346 26.3594H3.33594V28H24.6641V26.3594H23.0065C22.7777 20.8908 20.2672 18.6017 18.4108 16.9092C17.1655 15.7738 16.4609 15.0789 16.4609 14C16.4609 12.9211 17.1655 12.2262 18.4108 11.0908ZM13.1797 20.149C12.9263 20.2012 12.676 20.2773 12.4317 20.3784L7.4072 22.4575C8.22773 20.3712 9.54931 19.1657 10.6945 18.1216C11.9726 16.9564 13.1797 15.8558 13.1797 14V20.149ZM17.3055 18.1216C18.4507 19.1657 19.7722 20.3712 20.5928 22.4575L15.5683 20.3783C15.324 20.2773 15.0737 20.2012 14.8203 20.1489V14C14.8203 15.8558 16.0274 16.9564 17.3055 18.1216ZM7.37838 5.46875C6.98173 4.43521 6.7078 3.1873 6.63611 1.64062H21.3638C21.2921 3.1873 21.0183 4.43521 20.6216 5.46875H7.37838Z" fill="#F2C94C"/>
</svg>
