<svg width="23" height="23" viewBox="0 0 23 23" fill="none" xmlns="http://www.w3.org/2000/svg">
<path d="M0.92207 15.969C1.50035 17.3361 2.32801 18.5638 3.38211 19.6179C4.43616 20.672 5.66386 21.4996 7.03103 22.0779C8.44694 22.6768 9.95054 22.9804 11.5 22.9804C13.0495 22.9804 14.5531 22.6768 15.969 22.0779C17.3362 21.4996 18.5639 20.6719 19.618 19.6179C20.672 18.5638 21.4997 17.3361 22.0779 15.969C22.6768 14.553 22.9805 13.0495 22.9805 11.5C22.9805 9.9505 22.6768 8.4469 22.0779 7.03095C21.4997 5.66378 20.672 4.43608 19.618 3.38203C18.5639 2.32793 17.3362 1.50027 15.969 0.921992C14.553 0.323191 13.0495 0.0195312 11.5 0.0195312C9.95054 0.0195312 8.44694 0.323191 7.03099 0.92207C5.66382 1.50031 4.43616 2.32801 3.38207 3.38211C2.32797 4.43616 1.50031 5.66386 0.922031 7.03103C0.323191 8.44694 0.0195312 9.9505 0.0195312 11.5C0.0195312 13.0495 0.323191 14.553 0.92207 15.969ZM2.46401 7.68321C2.95788 6.51559 3.66505 5.46677 4.56591 4.56591C5.46677 3.66505 6.51559 2.95788 7.68321 2.46401C8.8916 1.95291 10.1758 1.69376 11.5 1.69376C12.8242 1.69376 14.1083 1.95291 15.3168 2.46405C16.4844 2.95788 17.5332 3.66509 18.4341 4.56595C19.3349 5.46681 20.0421 6.51563 20.536 7.68325C21.0471 8.89164 21.3062 10.1758 21.3062 11.5C21.3062 12.8242 21.0471 14.1083 20.536 15.3168C20.0421 16.4844 19.3349 17.5332 18.4341 18.4341C17.5332 19.3349 16.4844 20.0421 15.3168 20.536C14.1083 21.0471 12.8242 21.3062 11.5 21.3062C10.1758 21.3062 8.89164 21.0471 7.68321 20.536C6.51559 20.0421 5.46677 19.3349 4.56591 18.4341C3.66505 17.5332 2.95788 16.4844 2.46401 15.3167C1.95291 14.1083 1.69376 12.8242 1.69376 11.5C1.69376 10.1758 1.95291 8.89164 2.46401 7.68321Z" fill="#FFF4F4"/>
<path d="M11.5 23C9.94785 23 8.44171 22.6958 7.02342 22.0959C5.6539 21.5167 4.42413 20.6876 3.36832 19.6318C2.31247 18.5759 1.4834 17.3461 0.904102 15.9766C0.304168 14.5583 0 13.0521 0 11.5C0 9.94789 0.304168 8.44179 0.904063 7.02342C1.48332 5.6539 2.31243 4.42413 3.36828 3.36832C4.42413 2.31243 5.65386 1.48336 7.02338 0.904102C8.44175 0.304168 9.94789 0 11.5 0C13.0521 0 14.5583 0.304168 15.9766 0.904063C17.3461 1.48332 18.5759 2.31243 19.6318 3.36828C20.6876 4.4241 21.5166 5.65382 22.0959 7.02338C22.6958 8.44171 23 9.94785 23 11.5C23 13.0521 22.6958 14.5582 22.0959 15.9765C21.5167 17.3461 20.6876 18.5759 19.6318 19.6317C18.5759 20.6876 17.3461 21.5166 15.9766 22.0959C14.5583 22.6958 13.0521 23 11.5 23ZM11.5 0.0390811C9.95317 0.0390811 8.45214 0.342233 7.03862 0.940056C5.67375 1.51732 4.44817 2.34361 3.39591 3.39591C2.34365 4.44817 1.51736 5.67375 0.940056 7.03862C0.342233 8.45214 0.0390811 9.95317 0.0390811 11.5C0.0390811 13.0468 0.342233 14.5479 0.940056 15.9614C1.51736 17.3262 2.34365 18.5518 3.39591 19.6041C4.44817 20.6564 5.67375 21.4826 7.03862 22.0599C8.45207 22.6578 9.95313 22.9609 11.5 22.9609C13.0469 22.9609 14.5479 22.6578 15.9614 22.0599C17.3262 21.4826 18.5518 20.6564 19.6041 19.6041C20.6564 18.5518 21.4826 17.3262 22.0599 15.9614C22.6578 14.5479 22.9609 13.0469 22.9609 11.5C22.9609 9.95313 22.6578 8.4521 22.0599 7.03862C21.4826 5.67371 20.6563 4.44813 19.6041 3.39591C18.5518 2.34361 17.3262 1.51736 15.9614 0.940056C14.5479 0.342233 13.0468 0.0390811 11.5 0.0390811ZM11.5 21.3258C10.1731 21.3258 8.88645 21.0661 7.67564 20.554C6.50571 20.0591 5.45482 19.3505 4.55216 18.4479C3.64955 17.5453 2.94097 16.4944 2.44608 15.3243C1.93389 14.1135 1.67423 12.8268 1.67423 11.5C1.67423 10.1732 1.93393 8.88649 2.44605 7.67564C2.94089 6.50571 3.64947 5.45482 4.55212 4.55216C5.45478 3.64951 6.50567 2.94093 7.6756 2.44608C8.88645 1.93397 10.1732 1.67427 11.5 1.67427C12.8268 1.67427 14.1135 1.93397 15.3244 2.44612C16.4943 2.94097 17.5452 3.64955 18.4478 4.5522C19.3505 5.4549 20.0591 6.50579 20.554 7.67568C21.0661 8.88649 21.3257 10.1732 21.3257 11.5C21.3257 12.8269 21.066 14.1136 20.554 15.3244C20.0591 16.4944 19.3505 17.5453 18.4478 18.4479C17.5452 19.3506 16.4943 20.0591 15.3244 20.554C14.1135 21.0661 12.8268 21.3258 11.5 21.3258ZM11.5 1.71331C10.1784 1.71331 8.89685 1.97195 7.69084 2.48204C6.52556 2.97493 5.47882 3.6807 4.57976 4.57976C3.6807 5.47882 2.97489 6.52556 2.48204 7.69084C1.97195 8.89685 1.71331 10.1784 1.71331 11.5C1.71331 12.8216 1.97195 14.1032 2.48204 15.3092C2.97497 16.4745 3.68073 17.5213 4.57976 18.4202C5.47886 19.3193 6.52556 20.0251 7.69084 20.518C8.89681 21.028 10.1784 21.2867 11.5 21.2867C12.8216 21.2867 14.1032 21.028 15.3092 20.518C16.4745 20.0251 17.5212 19.3193 18.4202 18.4202C19.3193 17.5212 20.025 16.4745 20.518 15.3092C21.028 14.1032 21.2867 12.8216 21.2867 11.5C21.2867 10.1784 21.028 8.89685 20.518 7.69088C20.0251 6.52564 19.3193 5.47889 18.4202 4.57979C17.5212 3.68073 16.4745 2.97497 15.3092 2.48208C14.1032 1.97195 12.8216 1.71331 11.5 1.71331Z" fill="#FFF4F4"/>
<path d="M6.28634 12.3373H16.6646C17.1269 12.3373 17.5017 11.9625 17.5017 11.5002C17.5017 11.0379 17.1269 10.6631 16.6646 10.6631H6.28634C5.82401 10.6631 5.44922 11.0379 5.44922 11.5002C5.44922 11.9625 5.82401 12.3373 6.28634 12.3373Z" fill="#FFF4F4"/>
<path d="M16.6646 12.3569H6.28634C5.81397 12.3569 5.42969 11.9726 5.42969 11.5002C5.42969 11.0278 5.81397 10.6436 6.28634 10.6436H16.6646C17.1369 10.6436 17.5212 11.0278 17.5212 11.5002C17.5212 11.9726 17.1369 12.3569 16.6646 12.3569ZM6.28634 10.6826C5.83554 10.6826 5.46877 11.0494 5.46877 11.5002C5.46877 11.951 5.83554 12.3178 6.28634 12.3178H16.6646C17.1154 12.3178 17.4821 11.951 17.4821 11.5002C17.4821 11.0494 17.1154 10.6826 16.6646 10.6826H6.28634Z" fill="#FFF4F4"/>
</svg>
