<svg width="80" height="80" viewBox="0 0 80 80" fill="none" xmlns="http://www.w3.org/2000/svg">
<g clip-path="url(#clip0)">
<path d="M61.1915 34.0216V21.3526C61.2254 15.6201 58.9358 10.1081 54.8484 6.08862C50.8968 2.15391 45.724 0 40.246 0C40.1612 0 40.0594 0 39.9746 0C28.2892 0.0169599 18.7916 9.58236 18.7916 21.3526V34.0216C14.3821 34.5474 11.1597 38.2446 11.1597 42.7221V71.1808C11.1597 76.0144 15.0265 80 19.8601 80H60.14C64.9735 80 68.8404 76.0144 68.8404 71.1808V42.7221C68.8234 38.2616 65.6011 34.5474 61.1915 34.0216ZM22.1667 21.3526H22.1836C22.1836 11.448 30.1718 3.34111 39.9916 3.34111H40.0085C44.6725 3.32415 49.1499 5.17278 52.4571 8.46301C55.9 11.872 57.8164 16.519 57.7825 21.3526V34.0386H54.0513V21.3526C54.0853 17.5027 52.5589 13.8054 49.8283 11.0918C47.2504 8.51389 43.7567 7.05533 40.1103 7.05533H40.0085C32.2069 7.05533 25.8978 13.4662 25.8978 21.3356V34.0386H22.1667V21.3526V21.3526ZM50.6763 21.3526V34.0386H29.3068V21.3526C29.3068 15.3487 34.0895 10.4643 40.0255 10.4643H40.1272C42.8747 10.4643 45.5205 11.5667 47.4709 13.5171C49.54 15.5862 50.7102 18.4185 50.6763 21.3526ZM65.6011 71.2317C65.6011 74.1997 63.1927 76.608 60.2248 76.608H19.928C16.96 76.608 14.5517 74.1997 14.5517 71.2317V42.8069C14.5517 39.8389 16.96 37.4306 19.928 37.4306H60.2248C63.1927 37.4306 65.6011 39.8389 65.6011 42.8069V71.2317Z" fill="#F2C94C"/>
<path d="M45.8598 55.9678C45.1136 53.339 42.7222 51.5413 39.9917 51.5413C36.6167 51.5413 33.8691 54.2718 33.8691 57.6638C33.8691 60.3943 35.6669 62.7857 38.2957 63.5319V68.2807C38.2957 69.2135 39.0589 69.9767 39.9917 69.9767C40.9245 69.9767 41.6877 69.2135 41.6877 68.2807V63.5319C44.927 62.5991 46.8096 59.2071 45.8598 55.9678ZM39.9917 60.3774C38.4822 60.3774 37.2611 59.1563 37.2611 57.6468C37.2611 56.1374 38.4822 54.9163 39.9917 54.9163C41.5011 54.9163 42.7222 56.1374 42.7222 57.6468C42.7222 59.1563 41.5011 60.3774 39.9917 60.3774Z" fill="#F2C94C"/>
</g>
<defs>
<clipPath id="clip0">
<rect width="80" height="80" fill="white"/>
</clipPath>
</defs>
</svg>
