<svg width="60" height="46" viewBox="0 0 60 46" fill="none" xmlns="http://www.w3.org/2000/svg">
<path d="M10.9395 38.4932V42H8.88867V32.0469H12.7715C13.5189 32.0469 14.1751 32.1836 14.7402 32.457C15.3099 32.7305 15.7474 33.1201 16.0527 33.626C16.3581 34.1273 16.5107 34.6992 16.5107 35.3418C16.5107 36.3171 16.1758 37.0872 15.5059 37.6523C14.8405 38.2129 13.9176 38.4932 12.7373 38.4932H10.9395ZM10.9395 36.832H12.7715C13.3138 36.832 13.7262 36.7044 14.0088 36.4492C14.2959 36.194 14.4395 35.8294 14.4395 35.3555C14.4395 34.8678 14.2959 34.4736 14.0088 34.1729C13.7217 33.8721 13.3252 33.7171 12.8193 33.708H10.9395V36.832ZM19.8809 42H17.8984V31.5H19.8809V42ZM25.8008 42C25.7096 41.8223 25.6436 41.6012 25.6025 41.3369C25.124 41.8701 24.502 42.1367 23.7363 42.1367C23.0117 42.1367 22.4102 41.9271 21.9316 41.5078C21.4577 41.0885 21.2207 40.5599 21.2207 39.9219C21.2207 39.138 21.5101 38.5365 22.0889 38.1172C22.6722 37.6979 23.513 37.486 24.6113 37.4814H25.5205V37.0576C25.5205 36.7158 25.4316 36.4424 25.2539 36.2373C25.0807 36.0322 24.805 35.9297 24.4268 35.9297C24.0941 35.9297 23.832 36.0094 23.6406 36.1689C23.4538 36.3285 23.3604 36.5472 23.3604 36.8252H21.3848C21.3848 36.3968 21.5169 36.0003 21.7812 35.6357C22.0456 35.2712 22.4193 34.9863 22.9023 34.7812C23.3854 34.5716 23.9277 34.4668 24.5293 34.4668C25.4408 34.4668 26.1631 34.6969 26.6963 35.1572C27.234 35.613 27.5029 36.2555 27.5029 37.085V40.291C27.5075 40.9928 27.6055 41.5238 27.7969 41.8838V42H25.8008ZM24.167 40.626C24.4587 40.626 24.7275 40.5622 24.9736 40.4346C25.2197 40.3024 25.402 40.127 25.5205 39.9082V38.6367H24.7822C23.7933 38.6367 23.2669 38.9785 23.2031 39.6621L23.1963 39.7783C23.1963 40.0244 23.2829 40.2272 23.4561 40.3867C23.6292 40.5462 23.8662 40.626 24.167 40.626ZM31.3857 32.7852V34.6035H32.6504V36.0527H31.3857V39.7441C31.3857 40.0176 31.4382 40.2135 31.543 40.332C31.6478 40.4505 31.8483 40.5098 32.1445 40.5098C32.3633 40.5098 32.557 40.4938 32.7256 40.4619V41.959C32.3382 42.0775 31.9395 42.1367 31.5293 42.1367C30.1439 42.1367 29.4375 41.4372 29.4102 40.0381V36.0527H28.3301V34.6035H29.4102V32.7852H31.3857ZM35.8359 42H33.8535V34.6035H35.8359V42ZM33.7373 32.6895C33.7373 32.3932 33.8353 32.1494 34.0312 31.958C34.2318 31.7666 34.5029 31.6709 34.8447 31.6709C35.182 31.6709 35.4508 31.7666 35.6514 31.958C35.8519 32.1494 35.9521 32.3932 35.9521 32.6895C35.9521 32.9902 35.8496 33.2363 35.6445 33.4277C35.444 33.6191 35.1774 33.7148 34.8447 33.7148C34.512 33.7148 34.2432 33.6191 34.0381 33.4277C33.8376 33.2363 33.7373 32.9902 33.7373 32.6895ZM39.2881 34.6035L39.3496 35.458C39.8783 34.7972 40.5869 34.4668 41.4756 34.4668C42.2594 34.4668 42.8428 34.6969 43.2256 35.1572C43.6084 35.6175 43.8044 36.3057 43.8135 37.2217V42H41.8379V37.2695C41.8379 36.8503 41.7467 36.5472 41.5645 36.3604C41.3822 36.1689 41.0791 36.0732 40.6553 36.0732C40.0993 36.0732 39.6823 36.3102 39.4043 36.7842V42H37.4287V34.6035H39.2881ZM48.7217 42.1367C47.637 42.1367 46.7529 41.804 46.0693 41.1387C45.3903 40.4733 45.0508 39.5869 45.0508 38.4795V38.2881C45.0508 37.5452 45.1943 36.8822 45.4814 36.2988C45.7686 35.7109 46.1742 35.2598 46.6982 34.9453C47.2269 34.6263 47.8285 34.4668 48.5029 34.4668C49.5146 34.4668 50.3099 34.7858 50.8887 35.4238C51.472 36.0618 51.7637 36.9665 51.7637 38.1377V38.9443H47.0537C47.1175 39.4274 47.3089 39.8148 47.6279 40.1064C47.9515 40.3981 48.3594 40.5439 48.8516 40.5439C49.6126 40.5439 50.2074 40.2682 50.6357 39.7168L51.6064 40.8037C51.3102 41.223 50.9092 41.5511 50.4033 41.7881C49.8975 42.0205 49.3369 42.1367 48.7217 42.1367ZM48.4961 36.0664C48.1042 36.0664 47.7852 36.1986 47.5391 36.4629C47.2975 36.7272 47.1426 37.1055 47.0742 37.5977H49.8223V37.4404C49.8132 37.0029 49.6947 36.6657 49.4668 36.4287C49.2389 36.1872 48.9154 36.0664 48.4961 36.0664Z" fill="#CBD0C0"/>
<path d="M40.2222 3.77778H37.4444V1H23.5556V3.77778H20.7778C19.25 3.77778 18 5.02778 18 6.55556V7.94444C18 11.4861 20.6667 14.375 24.0972 14.8056C24.9722 16.8889 26.8472 18.4583 29.1111 18.9167V23.2222H23.5556V26H37.4444V23.2222H31.8889V18.9167C34.1528 18.4583 36.0278 16.8889 36.9028 14.8056C40.3333 14.375 43 11.4861 43 7.94444V6.55556C43 5.02778 41.75 3.77778 40.2222 3.77778ZM20.7778 7.94444V6.55556H23.5556V11.8611C21.9444 11.2778 20.7778 9.75 20.7778 7.94444ZM40.2222 7.94444C40.2222 9.75 39.0556 11.2778 37.4444 11.8611V6.55556H40.2222V7.94444Z" fill="#CBD0C0"/>
</svg>
