<svg width="45" height="44" viewBox="0 0 45 44" fill="none" xmlns="http://www.w3.org/2000/svg">
<path d="M2.93945 37.4932V41H0.888672V31.0469H4.77148C5.51888 31.0469 6.17513 31.1836 6.74023 31.457C7.3099 31.7305 7.7474 32.1201 8.05273 32.626C8.35807 33.1273 8.51074 33.6992 8.51074 34.3418C8.51074 35.3171 8.17578 36.0872 7.50586 36.6523C6.84049 37.2129 5.91764 37.4932 4.7373 37.4932H2.93945ZM2.93945 35.832H4.77148C5.3138 35.832 5.72624 35.7044 6.00879 35.4492C6.2959 35.194 6.43945 34.8294 6.43945 34.3555C6.43945 33.8678 6.2959 33.4736 6.00879 33.1729C5.72168 32.8721 5.3252 32.7171 4.81934 32.708H2.93945V35.832ZM11.8809 41H9.89844V30.5H11.8809V41ZM17.8008 41C17.7096 40.8223 17.6436 40.6012 17.6025 40.3369C17.124 40.8701 16.502 41.1367 15.7363 41.1367C15.0117 41.1367 14.4102 40.9271 13.9316 40.5078C13.4577 40.0885 13.2207 39.5599 13.2207 38.9219C13.2207 38.138 13.5101 37.5365 14.0889 37.1172C14.6722 36.6979 15.513 36.486 16.6113 36.4814H17.5205V36.0576C17.5205 35.7158 17.4316 35.4424 17.2539 35.2373C17.0807 35.0322 16.805 34.9297 16.4268 34.9297C16.0941 34.9297 15.832 35.0094 15.6406 35.1689C15.4538 35.3285 15.3604 35.5472 15.3604 35.8252H13.3848C13.3848 35.3968 13.5169 35.0003 13.7812 34.6357C14.0456 34.2712 14.4193 33.9863 14.9023 33.7812C15.3854 33.5716 15.9277 33.4668 16.5293 33.4668C17.4408 33.4668 18.1631 33.6969 18.6963 34.1572C19.234 34.613 19.5029 35.2555 19.5029 36.085V39.291C19.5075 39.9928 19.6055 40.5238 19.7969 40.8838V41H17.8008ZM16.167 39.626C16.4587 39.626 16.7275 39.5622 16.9736 39.4346C17.2197 39.3024 17.402 39.127 17.5205 38.9082V37.6367H16.7822C15.7933 37.6367 15.2669 37.9785 15.2031 38.6621L15.1963 38.7783C15.1963 39.0244 15.2829 39.2272 15.4561 39.3867C15.6292 39.5462 15.8662 39.626 16.167 39.626ZM23.3857 31.7852V33.6035H24.6504V35.0527H23.3857V38.7441C23.3857 39.0176 23.4382 39.2135 23.543 39.332C23.6478 39.4505 23.8483 39.5098 24.1445 39.5098C24.3633 39.5098 24.557 39.4938 24.7256 39.4619V40.959C24.3382 41.0775 23.9395 41.1367 23.5293 41.1367C22.1439 41.1367 21.4375 40.4372 21.4102 39.0381V35.0527H20.3301V33.6035H21.4102V31.7852H23.3857ZM27.8359 41H25.8535V33.6035H27.8359V41ZM25.7373 31.6895C25.7373 31.3932 25.8353 31.1494 26.0312 30.958C26.2318 30.7666 26.5029 30.6709 26.8447 30.6709C27.182 30.6709 27.4508 30.7666 27.6514 30.958C27.8519 31.1494 27.9521 31.3932 27.9521 31.6895C27.9521 31.9902 27.8496 32.2363 27.6445 32.4277C27.444 32.6191 27.1774 32.7148 26.8447 32.7148C26.512 32.7148 26.2432 32.6191 26.0381 32.4277C25.8376 32.2363 25.7373 31.9902 25.7373 31.6895ZM31.2881 33.6035L31.3496 34.458C31.8783 33.7972 32.5869 33.4668 33.4756 33.4668C34.2594 33.4668 34.8428 33.6969 35.2256 34.1572C35.6084 34.6175 35.8044 35.3057 35.8135 36.2217V41H33.8379V36.2695C33.8379 35.8503 33.7467 35.5472 33.5645 35.3604C33.3822 35.1689 33.0791 35.0732 32.6553 35.0732C32.0993 35.0732 31.6823 35.3102 31.4043 35.7842V41H29.4287V33.6035H31.2881ZM40.7217 41.1367C39.637 41.1367 38.7529 40.804 38.0693 40.1387C37.3903 39.4733 37.0508 38.5869 37.0508 37.4795V37.2881C37.0508 36.5452 37.1943 35.8822 37.4814 35.2988C37.7686 34.7109 38.1742 34.2598 38.6982 33.9453C39.2269 33.6263 39.8285 33.4668 40.5029 33.4668C41.5146 33.4668 42.3099 33.7858 42.8887 34.4238C43.472 35.0618 43.7637 35.9665 43.7637 37.1377V37.9443H39.0537C39.1175 38.4274 39.3089 38.8148 39.6279 39.1064C39.9515 39.3981 40.3594 39.5439 40.8516 39.5439C41.6126 39.5439 42.2074 39.2682 42.6357 38.7168L43.6064 39.8037C43.3102 40.223 42.9092 40.5511 42.4033 40.7881C41.8975 41.0205 41.3369 41.1367 40.7217 41.1367ZM40.4961 35.0664C40.1042 35.0664 39.7852 35.1986 39.5391 35.4629C39.2975 35.7272 39.1426 36.1055 39.0742 36.5977H41.8223V36.4404C41.8132 36.0029 41.6947 35.6657 41.4668 35.4287C41.2389 35.1872 40.9154 35.0664 40.4961 35.0664Z" fill="#6D7697"/>
<path d="M32.2222 2.77778H29.4444V0H15.5556V2.77778H12.7778C11.25 2.77778 10 4.02778 10 5.55556V6.94444C10 10.4861 12.6667 13.375 16.0972 13.8056C16.9722 15.8889 18.8472 17.4583 21.1111 17.9167V22.2222H15.5556V25H29.4444V22.2222H23.8889V17.9167C26.1528 17.4583 28.0278 15.8889 28.9028 13.8056C32.3333 13.375 35 10.4861 35 6.94444V5.55556C35 4.02778 33.75 2.77778 32.2222 2.77778ZM12.7778 6.94444V5.55556H15.5556V10.8611C13.9444 10.2778 12.7778 8.75 12.7778 6.94444ZM32.2222 6.94444C32.2222 8.75 31.0556 10.2778 29.4444 10.8611V5.55556H32.2222V6.94444Z" fill="#6D7697"/>
</svg>
