<svg width="60" height="60" viewBox="0 0 60 60" fill="none" xmlns="http://www.w3.org/2000/svg">
<path d="M4.93945 45.4932V49H2.88867V39.0469H6.77148C7.51888 39.0469 8.17513 39.1836 8.74023 39.457C9.3099 39.7305 9.7474 40.1201 10.0527 40.626C10.3581 41.1273 10.5107 41.6992 10.5107 42.3418C10.5107 43.3171 10.1758 44.0872 9.50586 44.6523C8.84049 45.2129 7.91764 45.4932 6.7373 45.4932H4.93945ZM4.93945 43.832H6.77148C7.3138 43.832 7.72624 43.7044 8.00879 43.4492C8.2959 43.194 8.43945 42.8294 8.43945 42.3555C8.43945 41.8678 8.2959 41.4736 8.00879 41.1729C7.72168 40.8721 7.3252 40.7171 6.81934 40.708H4.93945V43.832ZM13.8809 49H11.8984V38.5H13.8809V49ZM19.8008 49C19.7096 48.8223 19.6436 48.6012 19.6025 48.3369C19.124 48.8701 18.502 49.1367 17.7363 49.1367C17.0117 49.1367 16.4102 48.9271 15.9316 48.5078C15.4577 48.0885 15.2207 47.5599 15.2207 46.9219C15.2207 46.138 15.5101 45.5365 16.0889 45.1172C16.6722 44.6979 17.513 44.486 18.6113 44.4814H19.5205V44.0576C19.5205 43.7158 19.4316 43.4424 19.2539 43.2373C19.0807 43.0322 18.805 42.9297 18.4268 42.9297C18.0941 42.9297 17.832 43.0094 17.6406 43.1689C17.4538 43.3285 17.3604 43.5472 17.3604 43.8252H15.3848C15.3848 43.3968 15.5169 43.0003 15.7812 42.6357C16.0456 42.2712 16.4193 41.9863 16.9023 41.7812C17.3854 41.5716 17.9277 41.4668 18.5293 41.4668C19.4408 41.4668 20.1631 41.6969 20.6963 42.1572C21.234 42.613 21.5029 43.2555 21.5029 44.085V47.291C21.5075 47.9928 21.6055 48.5238 21.7969 48.8838V49H19.8008ZM18.167 47.626C18.4587 47.626 18.7275 47.5622 18.9736 47.4346C19.2197 47.3024 19.402 47.127 19.5205 46.9082V45.6367H18.7822C17.7933 45.6367 17.2669 45.9785 17.2031 46.6621L17.1963 46.7783C17.1963 47.0244 17.2829 47.2272 17.4561 47.3867C17.6292 47.5462 17.8662 47.626 18.167 47.626ZM25.3857 39.7852V41.6035H26.6504V43.0527H25.3857V46.7441C25.3857 47.0176 25.4382 47.2135 25.543 47.332C25.6478 47.4505 25.8483 47.5098 26.1445 47.5098C26.3633 47.5098 26.557 47.4938 26.7256 47.4619V48.959C26.3382 49.0775 25.9395 49.1367 25.5293 49.1367C24.1439 49.1367 23.4375 48.4372 23.4102 47.0381V43.0527H22.3301V41.6035H23.4102V39.7852H25.3857ZM29.8359 49H27.8535V41.6035H29.8359V49ZM27.7373 39.6895C27.7373 39.3932 27.8353 39.1494 28.0312 38.958C28.2318 38.7666 28.5029 38.6709 28.8447 38.6709C29.182 38.6709 29.4508 38.7666 29.6514 38.958C29.8519 39.1494 29.9521 39.3932 29.9521 39.6895C29.9521 39.9902 29.8496 40.2363 29.6445 40.4277C29.444 40.6191 29.1774 40.7148 28.8447 40.7148C28.512 40.7148 28.2432 40.6191 28.0381 40.4277C27.8376 40.2363 27.7373 39.9902 27.7373 39.6895ZM33.2881 41.6035L33.3496 42.458C33.8783 41.7972 34.5869 41.4668 35.4756 41.4668C36.2594 41.4668 36.8428 41.6969 37.2256 42.1572C37.6084 42.6175 37.8044 43.3057 37.8135 44.2217V49H35.8379V44.2695C35.8379 43.8503 35.7467 43.5472 35.5645 43.3604C35.3822 43.1689 35.0791 43.0732 34.6553 43.0732C34.0993 43.0732 33.6823 43.3102 33.4043 43.7842V49H31.4287V41.6035H33.2881ZM43.7471 48.248C43.2594 48.8405 42.585 49.1367 41.7236 49.1367C40.9307 49.1367 40.3245 48.9089 39.9053 48.4531C39.4906 47.9974 39.2786 47.3298 39.2695 46.4502V41.6035H41.2451V46.3818C41.2451 47.152 41.596 47.5371 42.2979 47.5371C42.9678 47.5371 43.4281 47.3047 43.6787 46.8398V41.6035H45.6611V49H43.8018L43.7471 48.248ZM49.0039 41.6035L49.0654 42.4307C49.5895 41.7881 50.2982 41.4668 51.1914 41.4668C52.1439 41.4668 52.7979 41.8428 53.1533 42.5947C53.6729 41.8428 54.4134 41.4668 55.375 41.4668C56.1771 41.4668 56.7741 41.7015 57.166 42.1709C57.5579 42.6357 57.7539 43.3376 57.7539 44.2764V49H55.7715V44.2832C55.7715 43.8639 55.6895 43.5586 55.5254 43.3672C55.3613 43.1712 55.0719 43.0732 54.6572 43.0732C54.0648 43.0732 53.6546 43.3558 53.4268 43.9209L53.4336 49H51.458V44.29C51.458 43.8617 51.3737 43.5518 51.2051 43.3604C51.0365 43.1689 50.7493 43.0732 50.3438 43.0732C49.7832 43.0732 49.3776 43.3057 49.127 43.7705V49H47.1514V41.6035H49.0039Z" fill="#CBD0C0"/>
<path d="M40.2222 10.7778H37.4444V8H23.5556V10.7778H20.7778C19.25 10.7778 18 12.0278 18 13.5556V14.9444C18 18.4861 20.6667 21.375 24.0972 21.8056C24.9722 23.8889 26.8472 25.4583 29.1111 25.9167V30.2222H23.5556V33H37.4444V30.2222H31.8889V25.9167C34.1528 25.4583 36.0278 23.8889 36.9028 21.8056C40.3333 21.375 43 18.4861 43 14.9444V13.5556C43 12.0278 41.75 10.7778 40.2222 10.7778ZM20.7778 14.9444V13.5556H23.5556V18.8611C21.9444 18.2778 20.7778 16.75 20.7778 14.9444ZM40.2222 14.9444C40.2222 16.75 39.0556 18.2778 37.4444 18.8611V13.5556H40.2222V14.9444Z" fill="#CBD0C0"/>
</svg>
