<svg width="60" height="60" viewBox="0 0 60 60" fill="none" xmlns="http://www.w3.org/2000/svg">
<path d="M10.9395 45.4932V49H8.88867V39.0469H12.7715C13.5189 39.0469 14.1751 39.1836 14.7402 39.457C15.3099 39.7305 15.7474 40.1201 16.0527 40.626C16.3581 41.1273 16.5107 41.6992 16.5107 42.3418C16.5107 43.3171 16.1758 44.0872 15.5059 44.6523C14.8405 45.2129 13.9176 45.4932 12.7373 45.4932H10.9395ZM10.9395 43.832H12.7715C13.3138 43.832 13.7262 43.7044 14.0088 43.4492C14.2959 43.194 14.4395 42.8294 14.4395 42.3555C14.4395 41.8678 14.2959 41.4736 14.0088 41.1729C13.7217 40.8721 13.3252 40.7171 12.8193 40.708H10.9395V43.832ZM19.8809 49H17.8984V38.5H19.8809V49ZM25.8008 49C25.7096 48.8223 25.6436 48.6012 25.6025 48.3369C25.124 48.8701 24.502 49.1367 23.7363 49.1367C23.0117 49.1367 22.4102 48.9271 21.9316 48.5078C21.4577 48.0885 21.2207 47.5599 21.2207 46.9219C21.2207 46.138 21.5101 45.5365 22.0889 45.1172C22.6722 44.6979 23.513 44.486 24.6113 44.4814H25.5205V44.0576C25.5205 43.7158 25.4316 43.4424 25.2539 43.2373C25.0807 43.0322 24.805 42.9297 24.4268 42.9297C24.0941 42.9297 23.832 43.0094 23.6406 43.1689C23.4538 43.3285 23.3604 43.5472 23.3604 43.8252H21.3848C21.3848 43.3968 21.5169 43.0003 21.7812 42.6357C22.0456 42.2712 22.4193 41.9863 22.9023 41.7812C23.3854 41.5716 23.9277 41.4668 24.5293 41.4668C25.4408 41.4668 26.1631 41.6969 26.6963 42.1572C27.234 42.613 27.5029 43.2555 27.5029 44.085V47.291C27.5075 47.9928 27.6055 48.5238 27.7969 48.8838V49H25.8008ZM24.167 47.626C24.4587 47.626 24.7275 47.5622 24.9736 47.4346C25.2197 47.3024 25.402 47.127 25.5205 46.9082V45.6367H24.7822C23.7933 45.6367 23.2669 45.9785 23.2031 46.6621L23.1963 46.7783C23.1963 47.0244 23.2829 47.2272 23.4561 47.3867C23.6292 47.5462 23.8662 47.626 24.167 47.626ZM31.3857 39.7852V41.6035H32.6504V43.0527H31.3857V46.7441C31.3857 47.0176 31.4382 47.2135 31.543 47.332C31.6478 47.4505 31.8483 47.5098 32.1445 47.5098C32.3633 47.5098 32.557 47.4938 32.7256 47.4619V48.959C32.3382 49.0775 31.9395 49.1367 31.5293 49.1367C30.1439 49.1367 29.4375 48.4372 29.4102 47.0381V43.0527H28.3301V41.6035H29.4102V39.7852H31.3857ZM35.8359 49H33.8535V41.6035H35.8359V49ZM33.7373 39.6895C33.7373 39.3932 33.8353 39.1494 34.0312 38.958C34.2318 38.7666 34.5029 38.6709 34.8447 38.6709C35.182 38.6709 35.4508 38.7666 35.6514 38.958C35.8519 39.1494 35.9521 39.3932 35.9521 39.6895C35.9521 39.9902 35.8496 40.2363 35.6445 40.4277C35.444 40.6191 35.1774 40.7148 34.8447 40.7148C34.512 40.7148 34.2432 40.6191 34.0381 40.4277C33.8376 40.2363 33.7373 39.9902 33.7373 39.6895ZM39.2881 41.6035L39.3496 42.458C39.8783 41.7972 40.5869 41.4668 41.4756 41.4668C42.2594 41.4668 42.8428 41.6969 43.2256 42.1572C43.6084 42.6175 43.8044 43.3057 43.8135 44.2217V49H41.8379V44.2695C41.8379 43.8503 41.7467 43.5472 41.5645 43.3604C41.3822 43.1689 41.0791 43.0732 40.6553 43.0732C40.0993 43.0732 39.6823 43.3102 39.4043 43.7842V49H37.4287V41.6035H39.2881ZM48.7217 49.1367C47.637 49.1367 46.7529 48.804 46.0693 48.1387C45.3903 47.4733 45.0508 46.5869 45.0508 45.4795V45.2881C45.0508 44.5452 45.1943 43.8822 45.4814 43.2988C45.7686 42.7109 46.1742 42.2598 46.6982 41.9453C47.2269 41.6263 47.8285 41.4668 48.5029 41.4668C49.5146 41.4668 50.3099 41.7858 50.8887 42.4238C51.472 43.0618 51.7637 43.9665 51.7637 45.1377V45.9443H47.0537C47.1175 46.4274 47.3089 46.8148 47.6279 47.1064C47.9515 47.3981 48.3594 47.5439 48.8516 47.5439C49.6126 47.5439 50.2074 47.2682 50.6357 46.7168L51.6064 47.8037C51.3102 48.223 50.9092 48.5511 50.4033 48.7881C49.8975 49.0205 49.3369 49.1367 48.7217 49.1367ZM48.4961 43.0664C48.1042 43.0664 47.7852 43.1986 47.5391 43.4629C47.2975 43.7272 47.1426 44.1055 47.0742 44.5977H49.8223V44.4404C49.8132 44.0029 49.6947 43.6657 49.4668 43.4287C49.2389 43.1872 48.9154 43.0664 48.4961 43.0664Z" fill="#CBD0C0"/>
<path d="M40.2222 10.7778H37.4444V8H23.5556V10.7778H20.7778C19.25 10.7778 18 12.0278 18 13.5556V14.9444C18 18.4861 20.6667 21.375 24.0972 21.8056C24.9722 23.8889 26.8472 25.4583 29.1111 25.9167V30.2222H23.5556V33H37.4444V30.2222H31.8889V25.9167C34.1528 25.4583 36.0278 23.8889 36.9028 21.8056C40.3333 21.375 43 18.4861 43 14.9444V13.5556C43 12.0278 41.75 10.7778 40.2222 10.7778ZM20.7778 14.9444V13.5556H23.5556V18.8611C21.9444 18.2778 20.7778 16.75 20.7778 14.9444ZM40.2222 14.9444C40.2222 16.75 39.0556 18.2778 37.4444 18.8611V13.5556H40.2222V14.9444Z" fill="#CBD0C0"/>
</svg>
