<svg width="23" height="23" viewBox="0 0 23 23" fill="none" xmlns="http://www.w3.org/2000/svg">
<path d="M18.8928 0H4.10712C1.83993 0.00269531 0.00269531 1.83993 0 4.10712V18.8928C0.00269531 21.16 1.83993 22.9973 4.10712 23H18.8928C21.16 22.9973 22.9973 21.16 23 18.8928V4.10712C22.9973 1.83993 21.16 0.00269531 18.8928 0ZM21.3571 18.8928C21.3571 20.2538 20.2538 21.3571 18.8928 21.3571H4.10712C2.74614 21.3571 1.64284 20.2538 1.64284 18.8928V4.10712C1.64284 2.74614 2.74614 1.64284 4.10712 1.64284H18.8928C20.2538 1.64284 21.3571 2.74614 21.3571 4.10712V18.8928Z" fill="white"/>
<path d="M15.607 10.6785H12.3213V7.39273C12.3213 6.93905 11.9535 6.57129 11.4999 6.57129C11.0462 6.57129 10.6784 6.93905 10.6784 7.39273V10.6785H7.39273C6.93905 10.6785 6.57129 11.0462 6.57129 11.4999C6.57129 11.9536 6.93905 12.3213 7.39273 12.3213H10.6785V15.607C10.6785 16.0607 11.0462 16.4285 11.4999 16.4285C11.9536 16.4285 12.3213 16.0607 12.3213 15.607V12.3213H15.607C16.0607 12.3213 16.4285 11.9535 16.4285 11.4999C16.4285 11.0462 16.0607 10.6785 15.607 10.6785Z" fill="white"/>
</svg>
