<svg width="26" height="26" viewBox="0 0 26 26" fill="none" xmlns="http://www.w3.org/2000/svg">
<path d="M14.625 17.875H9.75C9.75 13 12.35 11.375 14.1375 10.4C14.7875 10.075 15.275 9.75 15.6 9.425C16.4125 8.6125 16.0875 7.475 15.925 7.15C15.4375 6.0125 14.3 4.875 12.1875 4.875C8.775 4.875 8.125 7.9625 8.125 8.6125L3.25 7.9625C3.575 5.2 6.0125 0 12.1875 0C15.925 0 19.175 2.1125 20.475 5.2C21.6125 7.9625 21.125 10.8875 19.175 12.8375C18.3625 13.65 17.3875 14.1375 16.575 14.625C15.1125 15.4375 14.625 16.25 14.625 17.875Z" fill="#F2C94C"/>
<path d="M15.4375 22.75C15.4375 24.5456 13.9831 26 12.1875 26C10.3919 26 8.9375 24.5456 8.9375 22.75C8.9375 20.9544 10.3919 19.5 12.1875 19.5C13.9831 19.5 15.4375 20.9544 15.4375 22.75Z" fill="#F2C94C"/>
</svg>
