<svg width="22" height="22" viewBox="0 0 22 22" fill="none" xmlns="http://www.w3.org/2000/svg">
<path d="M10.9905 1.8335C5.93051 1.8335 1.83301 5.94016 1.83301 11.0002C1.83301 16.0602 5.93051 20.1668 10.9905 20.1668C16.0597 20.1668 20.1663 16.0602 20.1663 11.0002C20.1663 5.94016 16.0597 1.8335 10.9905 1.8335ZM10.9997 18.3335C6.94801 18.3335 3.66634 15.0518 3.66634 11.0002C3.66634 6.9485 6.94801 3.66683 10.9997 3.66683C15.0513 3.66683 18.333 6.9485 18.333 11.0002C18.333 15.0518 15.0513 18.3335 10.9997 18.3335Z" fill="#F2C94C"/>
<path d="M11.458 6.4165H10.083V11.9165L14.8955 14.804L15.583 13.6765L11.458 11.229V6.4165Z" fill="#F2C94C"/>
</svg>
