<svg width="60" height="60" viewBox="0 0 60 60" fill="none" xmlns="http://www.w3.org/2000/svg">
<path d="M18.0498 46.3887C18.0498 46.0013 17.9131 45.7051 17.6396 45.5C17.3662 45.2904 16.874 45.0716 16.1631 44.8438C15.4521 44.6113 14.8893 44.3835 14.4746 44.1602C13.3444 43.5495 12.7793 42.7269 12.7793 41.6924C12.7793 41.1546 12.9297 40.6761 13.2305 40.2568C13.5358 39.833 13.971 39.5026 14.5361 39.2656C15.1058 39.0286 15.7438 38.9102 16.4502 38.9102C17.1611 38.9102 17.7946 39.04 18.3506 39.2998C18.9066 39.555 19.3372 39.9173 19.6426 40.3867C19.9525 40.8561 20.1074 41.3893 20.1074 41.9863H18.0566C18.0566 41.5306 17.9131 41.1774 17.626 40.9268C17.3389 40.6715 16.9355 40.5439 16.416 40.5439C15.9147 40.5439 15.5251 40.651 15.2471 40.8652C14.9691 41.0749 14.8301 41.3529 14.8301 41.6992C14.8301 42.0228 14.9919 42.2939 15.3154 42.5127C15.6436 42.7314 16.1243 42.9365 16.7578 43.1279C17.9245 43.4788 18.7744 43.9141 19.3076 44.4336C19.8408 44.9531 20.1074 45.6003 20.1074 46.375C20.1074 47.2363 19.7816 47.9131 19.1299 48.4053C18.4782 48.8929 17.6009 49.1367 16.498 49.1367C15.7324 49.1367 15.0352 48.9977 14.4062 48.7197C13.7773 48.4372 13.2965 48.0521 12.9639 47.5645C12.6357 47.0768 12.4717 46.5117 12.4717 45.8691H14.5293C14.5293 46.9674 15.1855 47.5166 16.498 47.5166C16.9857 47.5166 17.3662 47.4186 17.6396 47.2227C17.9131 47.0221 18.0498 46.7441 18.0498 46.3887ZM23.457 49H21.4746V41.6035H23.457V49ZM21.3584 39.6895C21.3584 39.3932 21.4564 39.1494 21.6523 38.958C21.8529 38.7666 22.124 38.6709 22.4658 38.6709C22.8031 38.6709 23.0719 38.7666 23.2725 38.958C23.473 39.1494 23.5732 39.3932 23.5732 39.6895C23.5732 39.9902 23.4707 40.2363 23.2656 40.4277C23.0651 40.6191 22.7985 40.7148 22.4658 40.7148C22.1331 40.7148 21.8643 40.6191 21.6592 40.4277C21.4587 40.2363 21.3584 39.9902 21.3584 39.6895ZM27.1758 49H25.1934V38.5H27.1758V49ZM31.5781 46.5869L32.9521 41.6035H35.0166L32.5215 49H30.6348L28.1396 41.6035H30.2041L31.5781 46.5869ZM39.2002 49.1367C38.1156 49.1367 37.2314 48.804 36.5479 48.1387C35.8688 47.4733 35.5293 46.5869 35.5293 45.4795V45.2881C35.5293 44.5452 35.6729 43.8822 35.96 43.2988C36.2471 42.7109 36.6527 42.2598 37.1768 41.9453C37.7054 41.6263 38.307 41.4668 38.9814 41.4668C39.9932 41.4668 40.7884 41.7858 41.3672 42.4238C41.9505 43.0618 42.2422 43.9665 42.2422 45.1377V45.9443H37.5322C37.596 46.4274 37.7874 46.8148 38.1064 47.1064C38.43 47.3981 38.8379 47.5439 39.3301 47.5439C40.0911 47.5439 40.6859 47.2682 41.1143 46.7168L42.085 47.8037C41.7887 48.223 41.3877 48.5511 40.8818 48.7881C40.376 49.0205 39.8154 49.1367 39.2002 49.1367ZM38.9746 43.0664C38.5827 43.0664 38.2637 43.1986 38.0176 43.4629C37.776 43.7272 37.6211 44.1055 37.5527 44.5977H40.3008V44.4404C40.2917 44.0029 40.1732 43.6657 39.9453 43.4287C39.7174 43.1872 39.3939 43.0664 38.9746 43.0664ZM47.5264 43.4561C47.2575 43.4196 47.0205 43.4014 46.8154 43.4014C46.068 43.4014 45.5781 43.6543 45.3457 44.1602V49H43.3701V41.6035H45.2363L45.291 42.4854C45.6875 41.8063 46.2367 41.4668 46.9385 41.4668C47.1572 41.4668 47.3623 41.4964 47.5537 41.5557L47.5264 43.4561Z" fill="#C5C2C3"/>
<path d="M39.2222 10.7778H36.4444V8H22.5556V10.7778H19.7778C18.25 10.7778 17 12.0278 17 13.5556V14.9444C17 18.4861 19.6667 21.375 23.0972 21.8056C23.9722 23.8889 25.8472 25.4583 28.1111 25.9167V30.2222H22.5556V33H36.4444V30.2222H30.8889V25.9167C33.1528 25.4583 35.0278 23.8889 35.9028 21.8056C39.3333 21.375 42 18.4861 42 14.9444V13.5556C42 12.0278 40.75 10.7778 39.2222 10.7778ZM19.7778 14.9444V13.5556H22.5556V18.8611C20.9444 18.2778 19.7778 16.75 19.7778 14.9444ZM39.2222 14.9444C39.2222 16.75 38.0556 18.2778 36.4444 18.8611V13.5556H39.2222V14.9444Z" fill="#C5C2C3"/>
</svg>
