<svg width="80" height="76" viewBox="0 0 80 76" fill="none" xmlns="http://www.w3.org/2000/svg">
<path d="M57.3844 32.3305H52.7691V27.7338H29.6922V32.3305H25.0768C22.5383 32.3305 20.4614 34.3991 20.4614 36.9273V39.2257C20.4614 45.0866 24.8922 49.8673 30.5922 50.5798C32.046 54.0273 35.1614 56.6245 38.9229 57.383V64.508H29.6922V69.1048H52.7691V64.508H43.5383V57.383C47.2998 56.6245 50.4152 54.0273 51.8691 50.5798C57.5691 49.8673 61.9998 45.0866 61.9998 39.2257V36.9273C61.9998 34.3991 59.9229 32.3305 57.3844 32.3305ZM25.0768 39.2257V36.9273H29.6922V45.7072C27.0153 44.7418 25.0768 42.2136 25.0768 39.2257ZM57.3844 39.2257C57.3844 42.2136 55.446 44.7418 52.7691 45.7072V36.9273H57.3844V39.2257Z" fill="#CAC7BA"/>
<path d="M7.38479 30.1978L11.1879 32.4839L10.1786 28.1752L13.5386 25.2762L9.11402 24.9023L7.38479 20.8387L5.65557 24.9023L1.23096 25.2762L4.59095 28.1752L3.58172 32.4839L7.38479 30.1978Z" fill="#CAC7BA"/>
<path d="M20.9234 15.4881L24.7264 17.7742L23.7172 13.4655L27.0772 10.5665L22.6526 10.1926L20.9234 6.12903L19.1941 10.1926L14.7695 10.5665L18.1295 13.4655L17.1203 17.7742L20.9234 15.4881Z" fill="#CAC7BA"/>
<path d="M41.2305 10.5849L45.0336 12.871L44.0243 8.56229L47.3843 5.66325L42.9597 5.28938L41.2305 1.22583L39.5013 5.28938L35.0767 5.66325L38.4367 8.56229L37.4274 12.871L41.2305 10.5849Z" fill="#CAC7BA"/>
<path d="M60.3081 15.4881L64.1112 17.7742L63.102 13.4655L66.462 10.5665L62.0374 10.1926L60.3081 6.12903L58.5789 10.1926L54.1543 10.5665L57.5143 13.4655L56.5051 17.7742L60.3081 15.4881Z" fill="#CAC7BA"/>
<path d="M72.6158 30.1978L76.4188 32.4839L75.4096 28.1752L78.7696 25.2762L74.345 24.9023L72.6158 20.8387L70.8865 24.9023L66.4619 25.2762L69.8219 28.1752L68.8127 32.4839L72.6158 30.1978Z" fill="#CAC7BA"/>
</svg>
