<svg width="60" height="46" viewBox="0 0 60 46" fill="none" xmlns="http://www.w3.org/2000/svg">
<path d="M18.0498 39.3887C18.0498 39.0013 17.9131 38.7051 17.6396 38.5C17.3662 38.2904 16.874 38.0716 16.1631 37.8438C15.4521 37.6113 14.8893 37.3835 14.4746 37.1602C13.3444 36.5495 12.7793 35.7269 12.7793 34.6924C12.7793 34.1546 12.9297 33.6761 13.2305 33.2568C13.5358 32.833 13.971 32.5026 14.5361 32.2656C15.1058 32.0286 15.7438 31.9102 16.4502 31.9102C17.1611 31.9102 17.7946 32.04 18.3506 32.2998C18.9066 32.555 19.3372 32.9173 19.6426 33.3867C19.9525 33.8561 20.1074 34.3893 20.1074 34.9863H18.0566C18.0566 34.5306 17.9131 34.1774 17.626 33.9268C17.3389 33.6715 16.9355 33.5439 16.416 33.5439C15.9147 33.5439 15.5251 33.651 15.2471 33.8652C14.9691 34.0749 14.8301 34.3529 14.8301 34.6992C14.8301 35.0228 14.9919 35.2939 15.3154 35.5127C15.6436 35.7314 16.1243 35.9365 16.7578 36.1279C17.9245 36.4788 18.7744 36.9141 19.3076 37.4336C19.8408 37.9531 20.1074 38.6003 20.1074 39.375C20.1074 40.2363 19.7816 40.9131 19.1299 41.4053C18.4782 41.8929 17.6009 42.1367 16.498 42.1367C15.7324 42.1367 15.0352 41.9977 14.4062 41.7197C13.7773 41.4372 13.2965 41.0521 12.9639 40.5645C12.6357 40.0768 12.4717 39.5117 12.4717 38.8691H14.5293C14.5293 39.9674 15.1855 40.5166 16.498 40.5166C16.9857 40.5166 17.3662 40.4186 17.6396 40.2227C17.9131 40.0221 18.0498 39.7441 18.0498 39.3887ZM23.457 42H21.4746V34.6035H23.457V42ZM21.3584 32.6895C21.3584 32.3932 21.4564 32.1494 21.6523 31.958C21.8529 31.7666 22.124 31.6709 22.4658 31.6709C22.8031 31.6709 23.0719 31.7666 23.2725 31.958C23.473 32.1494 23.5732 32.3932 23.5732 32.6895C23.5732 32.9902 23.4707 33.2363 23.2656 33.4277C23.0651 33.6191 22.7985 33.7148 22.4658 33.7148C22.1331 33.7148 21.8643 33.6191 21.6592 33.4277C21.4587 33.2363 21.3584 32.9902 21.3584 32.6895ZM27.1758 42H25.1934V31.5H27.1758V42ZM31.5781 39.5869L32.9521 34.6035H35.0166L32.5215 42H30.6348L28.1396 34.6035H30.2041L31.5781 39.5869ZM39.2002 42.1367C38.1156 42.1367 37.2314 41.804 36.5479 41.1387C35.8688 40.4733 35.5293 39.5869 35.5293 38.4795V38.2881C35.5293 37.5452 35.6729 36.8822 35.96 36.2988C36.2471 35.7109 36.6527 35.2598 37.1768 34.9453C37.7054 34.6263 38.307 34.4668 38.9814 34.4668C39.9932 34.4668 40.7884 34.7858 41.3672 35.4238C41.9505 36.0618 42.2422 36.9665 42.2422 38.1377V38.9443H37.5322C37.596 39.4274 37.7874 39.8148 38.1064 40.1064C38.43 40.3981 38.8379 40.5439 39.3301 40.5439C40.0911 40.5439 40.6859 40.2682 41.1143 39.7168L42.085 40.8037C41.7887 41.223 41.3877 41.5511 40.8818 41.7881C40.376 42.0205 39.8154 42.1367 39.2002 42.1367ZM38.9746 36.0664C38.5827 36.0664 38.2637 36.1986 38.0176 36.4629C37.776 36.7272 37.6211 37.1055 37.5527 37.5977H40.3008V37.4404C40.2917 37.0029 40.1732 36.6657 39.9453 36.4287C39.7174 36.1872 39.3939 36.0664 38.9746 36.0664ZM47.5264 36.4561C47.2575 36.4196 47.0205 36.4014 46.8154 36.4014C46.068 36.4014 45.5781 36.6543 45.3457 37.1602V42H43.3701V34.6035H45.2363L45.291 35.4854C45.6875 34.8063 46.2367 34.4668 46.9385 34.4668C47.1572 34.4668 47.3623 34.4964 47.5537 34.5557L47.5264 36.4561Z" fill="#C5C2C3"/>
<path d="M39.2222 3.77778H36.4444V1H22.5556V3.77778H19.7778C18.25 3.77778 17 5.02778 17 6.55556V7.94444C17 11.4861 19.6667 14.375 23.0972 14.8056C23.9722 16.8889 25.8472 18.4583 28.1111 18.9167V23.2222H22.5556V26H36.4444V23.2222H30.8889V18.9167C33.1528 18.4583 35.0278 16.8889 35.9028 14.8056C39.3333 14.375 42 11.4861 42 7.94444V6.55556C42 5.02778 40.75 3.77778 39.2222 3.77778ZM19.7778 7.94444V6.55556H22.5556V11.8611C20.9444 11.2778 19.7778 9.75 19.7778 7.94444ZM39.2222 7.94444C39.2222 9.75 38.0556 11.2778 36.4444 11.8611V6.55556H39.2222V7.94444Z" fill="#C5C2C3"/>
</svg>
