<svg width="36" height="44" viewBox="0 0 36 44" fill="none" xmlns="http://www.w3.org/2000/svg">
<path d="M6.0498 38.3887C6.0498 38.0013 5.91309 37.7051 5.63965 37.5C5.36621 37.2904 4.87402 37.0716 4.16309 36.8438C3.45215 36.6113 2.88932 36.3835 2.47461 36.1602C1.3444 35.5495 0.779297 34.7269 0.779297 33.6924C0.779297 33.1546 0.929688 32.6761 1.23047 32.2568C1.53581 31.833 1.97103 31.5026 2.53613 31.2656C3.10579 31.0286 3.74382 30.9102 4.4502 30.9102C5.16113 30.9102 5.7946 31.04 6.35059 31.2998C6.90658 31.555 7.33724 31.9173 7.64258 32.3867C7.95247 32.8561 8.10742 33.3893 8.10742 33.9863H6.05664C6.05664 33.5306 5.91309 33.1774 5.62598 32.9268C5.33887 32.6715 4.93555 32.5439 4.41602 32.5439C3.91471 32.5439 3.52507 32.651 3.24707 32.8652C2.96908 33.0749 2.83008 33.3529 2.83008 33.6992C2.83008 34.0228 2.99186 34.2939 3.31543 34.5127C3.64355 34.7314 4.12435 34.9365 4.75781 35.1279C5.92448 35.4788 6.77441 35.9141 7.30762 36.4336C7.84082 36.9531 8.10742 37.6003 8.10742 38.375C8.10742 39.2363 7.78158 39.9131 7.12988 40.4053C6.47819 40.8929 5.60091 41.1367 4.49805 41.1367C3.73242 41.1367 3.03516 40.9977 2.40625 40.7197C1.77734 40.4372 1.29655 40.0521 0.963867 39.5645C0.635742 39.0768 0.47168 38.5117 0.47168 37.8691H2.5293C2.5293 38.9674 3.18555 39.5166 4.49805 39.5166C4.98568 39.5166 5.36621 39.4186 5.63965 39.2227C5.91309 39.0221 6.0498 38.7441 6.0498 38.3887ZM11.457 41H9.47461V33.6035H11.457V41ZM9.3584 31.6895C9.3584 31.3932 9.45638 31.1494 9.65234 30.958C9.85286 30.7666 10.124 30.6709 10.4658 30.6709C10.8031 30.6709 11.0719 30.7666 11.2725 30.958C11.473 31.1494 11.5732 31.3932 11.5732 31.6895C11.5732 31.9902 11.4707 32.2363 11.2656 32.4277C11.0651 32.6191 10.7985 32.7148 10.4658 32.7148C10.1331 32.7148 9.86426 32.6191 9.65918 32.4277C9.45866 32.2363 9.3584 31.9902 9.3584 31.6895ZM15.1758 41H13.1934V30.5H15.1758V41ZM19.5781 38.5869L20.9521 33.6035H23.0166L20.5215 41H18.6348L16.1396 33.6035H18.2041L19.5781 38.5869ZM27.2002 41.1367C26.1156 41.1367 25.2314 40.804 24.5479 40.1387C23.8688 39.4733 23.5293 38.5869 23.5293 37.4795V37.2881C23.5293 36.5452 23.6729 35.8822 23.96 35.2988C24.2471 34.7109 24.6527 34.2598 25.1768 33.9453C25.7054 33.6263 26.307 33.4668 26.9814 33.4668C27.9932 33.4668 28.7884 33.7858 29.3672 34.4238C29.9505 35.0618 30.2422 35.9665 30.2422 37.1377V37.9443H25.5322C25.596 38.4274 25.7874 38.8148 26.1064 39.1064C26.43 39.3981 26.8379 39.5439 27.3301 39.5439C28.0911 39.5439 28.6859 39.2682 29.1143 38.7168L30.085 39.8037C29.7887 40.223 29.3877 40.5511 28.8818 40.7881C28.376 41.0205 27.8154 41.1367 27.2002 41.1367ZM26.9746 35.0664C26.5827 35.0664 26.2637 35.1986 26.0176 35.4629C25.776 35.7272 25.6211 36.1055 25.5527 36.5977H28.3008V36.4404C28.2917 36.0029 28.1732 35.6657 27.9453 35.4287C27.7174 35.1872 27.3939 35.0664 26.9746 35.0664ZM35.5264 35.4561C35.2575 35.4196 35.0205 35.4014 34.8154 35.4014C34.068 35.4014 33.5781 35.6543 33.3457 36.1602V41H31.3701V33.6035H33.2363L33.291 34.4854C33.6875 33.8063 34.2367 33.4668 34.9385 33.4668C35.1572 33.4668 35.3623 33.4964 35.5537 33.5557L35.5264 35.4561Z" fill="#949AA0"/>
<path d="M27.2222 2.77778H24.4444V0H10.5556V2.77778H7.77778C6.25 2.77778 5 4.02778 5 5.55556V6.94444C5 10.4861 7.66667 13.375 11.0972 13.8056C11.9722 15.8889 13.8472 17.4583 16.1111 17.9167V22.2222H10.5556V25H24.4444V22.2222H18.8889V17.9167C21.1528 17.4583 23.0278 15.8889 23.9028 13.8056C27.3333 13.375 30 10.4861 30 6.94444V5.55556C30 4.02778 28.75 2.77778 27.2222 2.77778ZM7.77778 6.94444V5.55556H10.5556V10.8611C8.94444 10.2778 7.77778 8.75 7.77778 6.94444ZM27.2222 6.94444C27.2222 8.75 26.0556 10.2778 24.4444 10.8611V5.55556H27.2222V6.94444Z" fill="#949AA0"/>
</svg>
