<svg width="80" height="76" viewBox="0 0 80 76" fill="none" xmlns="http://www.w3.org/2000/svg">
<path d="M78.155 65.5387C78.1309 65.5156 78.1069 65.4926 78.0826 65.4699L75.0027 62.6105L69.3853 57.2408L65.2204 53.2841L68.9128 49.7763C69.5914 49.128 69.5914 48.0806 68.9128 47.4323L64.9229 43.6419C64.2405 42.9973 63.138 42.9973 62.4555 43.6419L61.0206 45.0051L55.1232 38.7377L78.5026 18.8547C78.8517 18.5561 79.0597 18.1367 79.0801 17.691L79.92 1.74803C79.9469 1.27756 79.7625 0.818302 79.4126 0.484564C79.0612 0.152073 78.5778 -0.023108 78.0826 0.00245225L61.3005 0.783806C60.8313 0.803132 60.3899 1.00076 60.0756 1.33242L40.0036 22.7116L19.8967 1.38208C19.5823 1.05042 19.1409 0.852798 18.6717 0.833472L1.88966 0.0521181C1.39442 0.0265578 0.910999 0.201739 0.559696 0.53423C0.209706 0.867968 0.0253045 1.32722 0.05221 1.7977L0.892187 17.7406C0.91253 18.1864 1.12056 18.6057 1.46967 18.9044L24.884 38.8538L19.0042 45.0215L17.5692 43.6583C16.8868 43.0137 15.7843 43.0137 15.1018 43.6583L11.1119 47.4487C10.4334 48.0971 10.4334 49.1444 11.1119 49.7928L14.8043 53.3005L10.6219 57.2406L1.87216 65.5528C-0.630928 67.9401 -0.623053 71.8033 1.88988 74.1812C3.08925 75.316 4.71168 75.9552 6.40454 75.9598C8.10462 75.9652 9.73645 75.3247 10.9369 74.181L23.7816 61.9786L27.474 65.4863C28.1564 66.131 29.2589 66.131 29.9414 65.4863L33.9313 61.6959C34.6098 61.0476 34.6098 60.0002 33.9313 59.3519L32.5663 57.9055L40.0036 51.6048L47.4409 57.9055L46.006 59.2688C45.3274 59.9171 45.3274 60.9645 46.006 61.6128L49.9959 65.4032C50.6783 66.0478 51.7808 66.0478 52.4633 65.4032L56.1557 61.8954L60.3206 65.8521L65.9554 71.2052L69.0003 74.0979C71.4883 76.4995 75.5546 76.5302 78.0826 74.1666C80.6106 71.8033 80.643 67.9401 78.155 65.5387ZM58.5006 47.3656L55.4207 50.2915L48.8409 44.0407L52.4633 40.9651L58.5006 47.3656ZM4.2521 16.8263L3.55211 3.41028L17.6742 4.07526L37.5537 25.1884L33.4938 29.4942L26.144 22.5119C25.4099 21.9146 24.3052 21.9959 23.6766 22.6933C23.1155 23.3157 23.1155 24.2336 23.6766 24.8559L31.2539 31.9879L27.229 36.2936L4.2521 16.8263ZM8.43448 71.6873C7.88806 72.2097 7.14477 72.5029 6.36954 72.5019C4.76002 72.3884 3.5519 71.0568 3.67155 69.5278C3.71924 68.9162 3.97888 68.337 4.40959 67.8803L6.15954 66.2178L10.2544 70.0581L8.43448 71.6873ZM12.7044 67.6309L8.67947 63.7906L11.8469 60.7816L15.9768 64.705L12.7044 67.6309ZM18.3567 62.2612L14.2268 58.3378L17.2542 55.6446L21.3841 59.568L18.3567 62.2612ZM28.6814 61.8123L25.0065 58.3212L18.4092 52.0537L14.8043 48.6124L16.3093 47.1827L30.3089 60.4824L28.6814 61.8123ZM29.9939 55.4784L26.914 52.5524L56.1382 24.7894C56.8723 24.1922 56.9578 23.1428 56.3291 22.4454C55.7005 21.748 54.5958 21.6667 53.8617 22.264C53.7932 22.3197 53.7294 22.3803 53.6707 22.4454L24.4465 50.2084L21.3666 47.2825L28.5414 39.6684L62.2455 4.09188L76.3676 3.4269L75.6677 16.8429L51.4833 37.3742L29.9939 55.4784ZM42.5236 49.2774L46.2859 46.2684L52.9883 52.6356L49.9084 55.5615L42.5236 49.2774ZM54.7732 58.3045L51.2208 61.8954L49.7159 60.4657L63.7155 47.1661L65.2204 48.5958L61.528 52.1036L54.7732 58.3045ZM58.4831 59.4849L62.753 55.6446L65.6754 58.4209L61.5455 62.3443L58.4831 59.4849ZM67.0579 67.6309L63.8905 64.6219L68.0204 60.6985L71.1878 63.7075L67.0579 67.6309ZM75.5977 71.7704L75.4577 71.6873C74.3016 72.7344 72.4838 72.7344 71.3278 71.6873L69.5778 70.0248L73.7952 66.2178L75.5452 67.8803C76.6761 68.9465 76.6992 70.6769 75.5977 71.7704Z" fill="#F2C94C"/>
</svg>
