<svg width="20" height="19" viewBox="0 0 20 19" fill="none" xmlns="http://www.w3.org/2000/svg">
<path d="M19.5387 16.3846C19.5327 16.3789 19.5267 16.3731 19.5206 16.3674L18.7506 15.6526L17.3463 14.3102L16.3051 13.321L17.2282 12.4441C17.3978 12.282 17.3978 12.0201 17.2282 11.858L16.2307 10.9104C16.0601 10.7493 15.7845 10.7493 15.6138 10.9104L15.2551 11.2513L13.7808 9.68439L19.6256 4.71366C19.7129 4.63901 19.7649 4.53417 19.77 4.42273L19.98 0.437007C19.9867 0.319388 19.9406 0.204575 19.8531 0.121141C19.7653 0.0380182 19.6444 -0.00577699 19.5206 0.000613061L15.3251 0.195951C15.2078 0.200783 15.0974 0.250189 15.0189 0.333103L10.0009 5.67788L4.97416 0.34552C4.89557 0.262605 4.78522 0.213199 4.66792 0.208368L0.472414 0.0130295C0.348605 0.00663945 0.227749 0.0504346 0.139924 0.133557C0.0524263 0.216991 0.0063261 0.331805 0.0130525 0.449423L0.223046 4.43515C0.228132 4.54659 0.280138 4.65142 0.367417 4.72608L6.221 9.71343L4.75104 11.2554L4.3923 10.9146C4.22168 10.7534 3.94606 10.7534 3.77544 10.9146L2.77797 11.8622C2.60834 12.0242 2.60834 12.2861 2.77797 12.4482L3.70107 13.3251L2.65547 14.3101L0.468039 16.3882C-0.157732 16.985 -0.155763 17.9508 0.472469 18.5453C0.772311 18.829 1.17792 18.9888 1.60113 18.9899C2.02615 18.9913 2.43411 18.8311 2.73422 18.5452L5.94538 15.4946L6.86848 16.3716C7.0391 16.5327 7.31471 16.5327 7.48533 16.3716L8.4828 15.424C8.65244 15.2619 8.65244 15 8.4828 14.8379L8.14156 14.4764L10.0009 12.9012L11.8602 14.4764L11.5015 14.8172C11.3318 14.9792 11.3318 15.2411 11.5015 15.4032L12.4989 16.3508C12.6696 16.5119 12.9452 16.5119 13.1158 16.3508L14.0389 15.4738L15.0801 16.463L16.4888 17.8013L17.25 18.5244C17.872 19.1248 18.8886 19.1325 19.5206 18.5416C20.1526 17.9508 20.1607 16.985 19.5387 16.3846ZM14.6251 11.8414L13.8551 12.5729L12.2102 11.0101L13.1158 10.2413L14.6251 11.8414ZM1.06302 4.20656L0.888027 0.852567L4.41855 1.01881L9.3884 6.2971L8.37343 7.37353L6.53599 5.62796C6.35246 5.47865 6.0763 5.49896 5.91913 5.67331C5.77886 5.82891 5.77886 6.05838 5.91913 6.21397L7.81345 7.99695L6.80723 9.07339L1.06302 4.20656ZM2.10862 17.9218C1.97201 18.0524 1.78619 18.1257 1.59238 18.1254C1.19 18.0971 0.887972 17.7642 0.917885 17.3819C0.929807 17.229 0.994719 17.0842 1.1024 16.97L1.53988 16.5544L2.5636 17.5145L2.10862 17.9218ZM3.17608 16.9077L2.16986 15.9476L2.96172 15.1954L3.99419 16.1762L3.17608 16.9077ZM4.58917 15.5653L3.5567 14.5844L4.31355 13.9111L5.34602 14.892L4.58917 15.5653ZM7.17034 15.453L6.25162 14.5803L4.60229 13.0134L3.70107 12.1531L4.07731 11.7957L7.57721 15.1206L7.17034 15.453ZM7.49846 13.8696L6.72848 13.1381L14.0345 6.19735C14.218 6.04804 14.2394 5.78568 14.0823 5.61133C13.9251 5.43699 13.6489 5.41667 13.4654 5.56598C13.4483 5.5799 13.4323 5.59507 13.4177 5.61133L6.11162 12.5521L5.34165 11.8206L7.13534 9.91708L15.5613 1.02297L19.0919 0.856724L18.9169 4.21072L12.8708 9.34354L7.49846 13.8696ZM10.6309 12.3193L11.5715 11.5671L13.247 13.1589L12.4771 13.8903L10.6309 12.3193ZM13.6933 14.5761L12.8052 15.4738L12.4289 15.1164L15.9288 11.7915L16.3051 12.1489L15.382 13.0259L13.6933 14.5761ZM14.6208 14.8712L15.6882 13.9111L16.4188 14.6052L15.3864 15.586L14.6208 14.8712ZM16.7644 16.9077L15.9726 16.1554L17.0051 15.1746L17.7969 15.9268L16.7644 16.9077ZM18.8994 17.9426L18.8644 17.9218C18.5754 18.1836 18.1209 18.1836 17.8319 17.9218L17.3944 17.5062L18.4488 16.5544L18.8863 16.97C19.169 17.2366 19.1748 17.6692 18.8994 17.9426Z" fill="black"/>
</svg>
